<?xml version="1.0" encoding="UTF-8"?>
<svg version="1.1" xmlns="http://www.w3.org/2000/svg" width="1836" height="2393">
<path d="M0 0 C3.78075551 1.4972461 5.40670546 3.53657424 7.75 6.8125 C8.54153871 7.90208197 9.33463578 8.99053279 10.12890625 10.078125 C10.57637207 10.69365234 11.02383789 11.30917969 11.48486328 11.94335938 C14.4935879 16.02739035 17.60182723 20.03651215 20.6875 24.0625 C26.44305651 31.59503428 32.10823151 39.18667734 37.7097168 46.83422852 C42.07190855 52.77561134 46.52011973 58.64697635 51 64.5 C56.65353395 71.88641792 62.21470194 79.33194466 67.7109375 86.8359375 C72.07277032 92.77671433 76.52054548 98.6475326 81 104.5 C86.65353395 111.88641792 92.21470194 119.33194466 97.7109375 126.8359375 C102.07277032 132.77671433 106.52054548 138.6475326 111 144.5 C116.65353395 151.88641792 122.21470194 159.33194466 127.7109375 166.8359375 C132.73308941 173.67606295 137.87611662 180.41990994 143.03466797 187.1574707 C147.46423345 192.95380929 151.81815557 198.79953926 156.125 204.6875 C160.6511537 210.87256071 165.27050653 216.96904047 170 223 C175.3344624 229.80240433 180.50593814 236.70659786 185.609375 243.68359375 C190.65244775 250.56458634 195.81934506 257.34598334 201.00561523 264.11938477 C206.33576968 271.09449586 211.56456118 278.13995309 216.74804688 285.22460938 C217.29396484 285.97033203 217.83988281 286.71605469 218.40234375 287.484375 C218.88179443 288.14147461 219.36124512 288.79857422 219.85522461 289.47558594 C220.91686622 290.96380382 220.91686622 290.96380382 222 292 C230.15123878 291.77750245 238.29000076 290.49109478 246.35063171 289.33236694 C247.53504359 289.16494228 248.71945546 288.99751762 249.9397586 288.82501948 C253.19327217 288.3644133 256.44633276 287.90075321 259.69921911 287.43574214 C263.22313913 286.93276705 266.74762945 286.43381752 270.27204895 285.93435669 C276.37804038 285.06849441 282.48366955 284.20011534 288.58905602 283.32999802 C297.46957612 282.06438111 306.35063829 280.80260202 315.23182867 279.54169829 C329.71442786 277.48542828 344.19658405 275.42605537 358.6784668 273.36474609 C372.61800621 271.38063878 386.5577575 269.39803097 400.49780273 267.41748047 C401.35109599 267.2962472 402.20438924 267.17501393 403.08353987 267.05010693 C406.51725105 266.56226245 409.95096389 266.07442959 413.38467888 265.58661189 C439.21859753 261.91645467 465.05233059 258.2449901 490.88541154 254.56894078 C495.21398824 253.95304354 499.54264553 253.33771665 503.8713724 252.72287577 C517.5624235 250.77808567 531.25175415 248.82258794 544.93643188 246.83331299 C548.3493025 246.33897212 551.7622218 245.84496883 555.17515719 245.35107541 C558.27875625 244.90026221 561.38153854 244.44411387 564.48431683 243.98769188 C566.3319792 243.72001242 568.17967792 243.45258374 570.02742004 243.18545532 C570.84334787 243.06361382 571.65927569 242.94177231 572.49992859 242.81623864 C573.2602866 242.70742167 574.02064461 242.5986047 574.80404377 242.48649025 C575.45051941 242.3918032 576.09699505 242.29711616 576.76306087 242.19955981 C579.84513627 241.92460446 582.90774719 241.97096074 586 242 C585.43408718 251.6697603 584.40420945 261.16104195 583.01278687 270.74745178 C582.80867443 272.17896719 582.60499798 273.61054481 582.40171397 275.04217809 C581.84771279 278.9350683 581.28771246 282.82707433 580.72666883 286.71895492 C580.12049808 290.93168855 579.52007264 295.1452414 578.91899109 299.35870361 C577.87865615 306.64622447 576.83495536 313.93325668 575.78910446 321.21998787 C574.27641753 331.76037587 572.77075393 342.30175844 571.26709087 352.84343713 C568.82604743 369.95653794 566.38189133 387.06919231 563.93457031 404.18139648 C563.78833338 405.20393001 563.64209645 406.22646353 563.49142809 407.27998292 C561.85790972 418.70142001 560.22340703 430.1227158 558.58758545 441.54382324 C558.44027419 442.57234281 558.29296294 443.60086239 558.14118771 444.66054922 C557.99400723 445.68815151 557.84682675 446.71575379 557.69518626 447.77449554 C557.39835203 449.84697796 557.10151911 451.91946057 556.8046875 453.99194336 C556.65802204 455.01595169 556.51135657 456.03996002 556.3602467 457.0949989 C553.91673623 474.15666209 551.47969125 491.21924153 549.04785597 508.28257269 C547.54831984 518.80235735 546.04324166 529.32132009 544.53105344 539.83929365 C543.4966741 547.03682191 542.4682896 554.23519015 541.44466566 561.43425585 C540.85364295 565.58942479 540.2598405 569.74414818 539.65873146 573.89787102 C539.10884907 577.69796173 538.56666086 581.49906701 538.03063603 585.30113643 C537.8351085 586.67806954 537.63672044 588.05460003 537.43522446 589.43067241 C537.16221645 591.2979583 536.9005177 593.16688728 536.63941002 595.03587437 C536.490722 596.07441486 536.34203398 597.11295535 536.18884027 598.18296677 C535.99663839 601.05014698 536.20251571 603.24545254 537 606 C538.72959888 607.90695706 538.72959888 607.90695706 541.0234375 609.49609375 C541.86970703 610.12966797 542.71597656 610.76324219 543.58789062 611.41601562 C544.50763672 612.08310547 545.42738281 612.75019531 546.375 613.4375 C547.32310547 614.14197266 548.27121094 614.84644531 549.24804688 615.57226562 C552.15571043 617.72831462 555.07641314 619.86561144 558 622 C559.62827788 623.19830384 561.25592481 624.39746569 562.8828125 625.59765625 C565.19500751 627.30244111 567.50807846 629.00592206 569.82495117 630.7043457 C576.7393971 635.77905641 583.56152351 640.97054704 590.375 646.1796875 C595.56390483 650.14631697 600.7676907 654.09081877 606 658 C612.1357291 662.58414738 618.22796626 667.22316171 624.3125 671.875 C631.7625489 677.56765675 639.27134428 683.17020784 646.83520508 688.71044922 C653.67776708 693.73424616 660.42337957 698.87977146 667.1640625 704.0390625 C672.89902727 708.42064326 678.67759563 712.73542958 684.5 717 C692.12740017 722.5866242 699.65644565 728.29276338 707.1640625 734.0390625 C712.89902727 738.42064326 718.67759563 742.73542958 724.5 747 C732.12740017 752.5866242 739.65644565 758.29276338 747.1640625 764.0390625 C752.89902727 768.42064326 758.67759563 772.73542958 764.5 777 C772.1214867 782.58229293 779.64505411 788.28354788 787.14648438 794.02587891 C793.82660849 799.13005825 800.57581764 804.1328301 807.35668945 809.10205078 C813.98456952 813.96669267 820.5147463 818.94685798 827 824 C825.88024077 827.35927769 825.26397398 827.80914756 822.484375 829.79296875 C821.73841064 830.33260254 820.99244629 830.87223633 820.22387695 831.42822266 C819.40749756 832.00878418 818.59111816 832.5893457 817.75 833.1875 C816.00794194 834.44759918 814.26710027 835.70938135 812.52734375 836.97265625 C811.61839355 837.63152832 810.70944336 838.29040039 809.77294922 838.96923828 C805.23746493 842.2907877 800.77518092 845.70659298 796.3125 849.125 C789.59721703 854.26046804 782.86274786 859.36692681 776.09033203 864.42675781 C770.59443813 868.53936901 765.14061253 872.70590524 759.6875 876.875 C752.2374511 882.56765675 744.72865572 888.17020784 737.16479492 893.71044922 C731.2237217 898.07237469 725.3527001 902.52036737 719.5 907 C712.11358208 912.65353395 704.66805534 918.21470194 697.1640625 923.7109375 C691.22328567 928.07277032 685.3524674 932.52054548 679.5 937 C672.11358208 942.65353395 664.66805534 948.21470194 657.1640625 953.7109375 C651.22328567 958.07277032 645.3524674 962.52054548 639.5 967 C632.11358208 972.65353395 624.66805534 978.21470194 617.1640625 983.7109375 C610.32393705 988.73308941 603.58009006 993.87611662 596.8425293 999.03466797 C591.04618888 1003.46423485 585.20040551 1007.81807808 579.3125 1012.125 C573.06801415 1016.69577962 566.90771247 1021.35694444 560.8125 1026.125 C554.90287415 1030.74557206 548.97985638 1035.34548445 543 1039.875 C542.32300049 1040.39336426 541.64600098 1040.91172852 540.94848633 1041.44580078 C536.23254868 1045 536.23254868 1045 534 1045 C534.17416695 1045.93480603 534.34833389 1046.86961206 534.52777863 1047.83274555 C536.9207546 1060.90610596 538.79291751 1074.04409592 540.65429688 1087.2019043 C541.01102818 1089.70839844 541.36800966 1092.214857 541.72521973 1094.72128296 C542.5909082 1100.8001295 543.4539855 1106.87934178 544.31586689 1112.95872911 C545.33162494 1120.12251133 546.35061379 1127.28583297 547.36973053 1134.44913802 C549.20122828 1147.32327361 551.03012384 1160.19777747 552.85742188 1173.07250977 C554.60329506 1185.37350774 556.35053653 1197.67431008 558.09960938 1209.97485352 C558.20619653 1210.72444929 558.31278368 1211.47404507 558.42260075 1212.24635588 C558.85192224 1215.26562354 559.28125161 1218.28489008 559.71059084 1221.30415522 C564.2850553 1253.47357305 568.85231359 1285.64400934 573.41387939 1317.81525862 C574.58252898 1326.05713213 575.75196656 1334.29889347 576.921875 1342.54058838 C578.28544423 1352.14703755 579.64681584 1361.75379563 581.00611877 1371.36084938 C581.47530538 1374.6764259 581.94540898 1377.99187025 582.41636658 1381.30719566 C582.94459649 1385.02597884 583.4709304 1388.74502477 583.99559021 1392.46431327 C584.26920386 1394.40050201 584.54484155 1396.33640439 584.82055664 1398.272295 C584.97866821 1399.3962763 585.13677979 1400.52025761 585.29968262 1401.67829895 C585.43628044 1402.64313611 585.57287827 1403.60797327 585.71361542 1404.60204792 C586 1407 586 1407 586 1410 C579.89624246 1410.14356897 574.13420198 1409.60902574 568.09928894 1408.72750854 C566.64410424 1408.5218136 566.64410424 1408.5218136 565.15952188 1408.3119632 C561.91831421 1407.8524304 558.6783046 1407.38494702 555.43823242 1406.91748047 C553.10517102 1406.58503946 550.77203919 1406.25309241 548.43884277 1405.92160034 C542.74184466 1405.11092013 537.04559868 1404.2951056 531.34964874 1403.47709607 C524.61750812 1402.51058614 517.88443651 1401.55063749 511.15130857 1400.59103395 C499.01407105 1398.86107433 486.87753977 1397.12621085 474.74145508 1395.38818359 C458.27784307 1393.03042272 441.81344123 1390.67821899 425.34877953 1388.32780069 C419.74046543 1387.52716126 414.13217385 1386.72636407 408.52387749 1385.92560038 C406.43017108 1385.62666015 404.33646318 1385.32773036 402.24275506 1385.02880216 C393.22591889 1383.74140733 384.20914972 1382.45354397 375.19241519 1381.16543749 C341.47562939 1376.34880157 307.75867247 1371.53333594 274.03716469 1366.74985123 C269.70506444 1366.1352497 265.37315143 1365.51935376 261.04140282 1364.9022789 C256.0714188 1364.19434459 251.10107161 1363.48902243 246.13040709 1362.78588247 C244.33196809 1362.53103736 242.53366137 1362.27525673 240.73549867 1362.01846933 C238.30545233 1361.67161222 235.87494823 1361.32816612 233.44429016 1360.98562622 C232.74028098 1360.88432085 232.0362718 1360.78301548 231.310929 1360.67864025 C228.15133259 1360.2369104 225.20249337 1360 222 1360 C220.4144027 1361.41242701 220.4144027 1361.41242701 219.109375 1363.41796875 C218.573125 1364.16691406 218.036875 1364.91585938 217.484375 1365.6875 C216.91203125 1366.5125 216.3396875 1367.3375 215.75 1368.1875 C214.49664356 1369.9427301 213.24136377 1371.69658806 211.984375 1373.44921875 C211.33146484 1374.36493652 210.67855469 1375.2806543 210.00585938 1376.22412109 C206.75909624 1380.71726823 203.37850267 1385.10556962 200 1389.5 C194.93193678 1396.11825857 189.92562113 1402.77506521 185 1409.5 C179.41770707 1417.1214867 173.71645212 1424.64505411 167.97412109 1432.14648438 C163.4614174 1438.05251133 159.01978752 1444.00579406 154.625 1450 C149.65413204 1456.77795546 144.59840546 1463.47302822 139.45214844 1470.11914062 C130.59545857 1481.59054929 121.85389129 1493.14293139 113.29003906 1504.83447266 C108.26616188 1511.67733986 103.12040641 1518.42314718 97.9609375 1525.1640625 C93.57935674 1530.89902727 89.26457042 1536.67759563 85 1542.5 C79.4133758 1550.12740017 73.70723662 1557.65644565 67.9609375 1565.1640625 C63.57935674 1570.89902727 59.26457042 1576.67759563 55 1582.5 C50.07435123 1589.22497252 45.06642668 1595.88045965 40 1602.5 C34.33820422 1609.89908419 28.75875121 1617.3512507 23.24951172 1624.86450195 C16.57269553 1633.96427889 9.78675713 1642.98207853 3 1652 C-0.22417499 1650.62803826 -1.8673217 1649.23080266 -3.890625 1646.38671875 C-4.426875 1645.64421875 -4.963125 1644.90171875 -5.515625 1644.13671875 C-6.08796875 1643.32847656 -6.6603125 1642.52023437 -7.25 1641.6875 C-8.50353328 1639.95061278 -9.7588066 1638.21498032 -11.015625 1636.48046875 C-11.66853516 1635.57731934 -12.32144531 1634.67416992 -12.99414062 1633.74365234 C-16.26027763 1629.27616845 -19.63066483 1624.88986281 -23 1620.5 C-28.6546137 1613.11442362 -34.21471899 1605.66803206 -39.7109375 1598.1640625 C-44.07277032 1592.22328567 -48.52054548 1586.3524674 -53 1580.5 C-58.06651732 1573.88052718 -63.07426164 1567.22490542 -68 1560.5 C-73.63719029 1552.80551751 -79.38641797 1545.20250844 -85.1796875 1537.625 C-89.6289828 1531.80470092 -94.041928 1525.95928117 -98.42675781 1520.09033203 C-102.53936901 1514.59443813 -106.70590524 1509.14061253 -110.875 1503.6875 C-116.56765675 1496.2374511 -122.17020784 1488.72865572 -127.71044922 1481.16479492 C-132.07237469 1475.2237217 -136.52036737 1469.3527001 -141 1463.5 C-146.65353395 1456.11358208 -152.21470194 1448.66805534 -157.7109375 1441.1640625 C-162.07277032 1435.22328567 -166.52054548 1429.3524674 -171 1423.5 C-176.0665168 1416.88052785 -181.07429391 1410.22492873 -186 1403.5 C-191.03182327 1396.63119629 -196.14439368 1389.82936869 -201.3125 1383.0625 C-202.32376953 1381.73738403 -202.32376953 1381.73738403 -203.35546875 1380.38549805 C-205.76046319 1377.23577522 -208.16569706 1374.08627016 -210.57958984 1370.94335938 C-211.89042347 1369.23610249 -213.19590857 1367.52490807 -214.5 1365.8125 C-215.1909375 1364.91144531 -215.881875 1364.01039062 -216.59375 1363.08203125 C-218 1361 -218 1361 -218 1359 C-218.86172286 1359.12310327 -219.72344572 1359.24620653 -220.61128139 1359.3730402 C-221.847543 1359.549649 -223.08380461 1359.7262578 -224.35752869 1359.90821838 C-225.38740684 1360.05534414 -225.38740684 1360.05534414 -226.43809062 1360.20544213 C-230.44407677 1360.77772673 -234.45006344 1361.35000763 -238.45605087 1361.92228317 C-246.9947714 1363.1420864 -255.5334877 1364.3619192 -264.07218915 1365.58185595 C-269.22878771 1366.31858518 -274.38538925 1367.05529362 -279.54199219 1367.79199219 C-281.13467975 1368.019532 -281.13467975 1368.019532 -282.75954282 1368.25166857 C-298.25315448 1370.46512927 -313.74691462 1372.6775482 -329.240762 1374.88935828 C-339.39361496 1376.3387608 -349.5464233 1377.78847586 -359.69921875 1379.23828125 C-360.83137644 1379.3999464 -361.96353414 1379.56161155 -363.12999964 1379.72817564 C-393.37931139 1384.04771563 -423.62692167 1388.37886259 -453.87195569 1392.72825497 C-460.55631053 1393.68943424 -467.24080375 1394.64964575 -473.92539978 1395.60914612 C-475.30662322 1395.80740985 -475.30662322 1395.80740985 -476.71575016 1396.0096789 C-480.37236733 1396.53453198 -484.02898979 1397.05934818 -487.68563116 1397.58403265 C-498.24208361 1399.09876744 -508.79804629 1400.61681322 -519.35320038 1402.14057022 C-525.91677497 1403.08781173 -532.48091352 1404.03107376 -539.04551464 1404.97117466 C-542.79885558 1405.50882792 -546.55190654 1406.04832696 -550.30425453 1406.59287071 C-554.34293649 1407.17895363 -558.38280691 1407.75639341 -562.42285156 1408.33300781 C-563.59207625 1408.5041488 -564.76130095 1408.67528978 -565.96595669 1408.85161686 C-567.04793866 1409.00461467 -568.12992064 1409.15761248 -569.24468994 1409.31524658 C-570.17001652 1409.44848957 -571.09534309 1409.58173256 -572.04870987 1409.71901321 C-575.72109517 1410.06865412 -579.31140486 1410.04336495 -583 1410 C-581.44702732 1394.71243688 -579.29901393 1379.5216276 -577.12036133 1364.3125 C-576.72693893 1361.55364667 -576.33435774 1358.79467379 -575.94174194 1356.03570557 C-575.09943713 1350.11977974 -574.25514273 1344.20414071 -573.40946388 1338.28869629 C-572.17904141 1329.6818938 -570.95187336 1321.0746296 -569.72545942 1312.46725512 C-567.72460441 1298.42513379 -565.72138024 1284.38335155 -563.71655273 1270.34179688 C-561.78851612 1256.8380265 -559.86125089 1243.33414653 -557.93530273 1229.83007812 C-557.81731918 1229.00282258 -557.69933564 1228.17556704 -557.57777683 1227.32324314 C-556.28013512 1218.22451531 -554.98271404 1209.12575604 -553.68542767 1200.02697754 C-553.33732064 1197.58548003 -552.98921349 1195.14398253 -552.64110599 1192.70248508 C-552.41100141 1191.08860104 -552.18090076 1189.47471643 -551.95080408 1187.86083126 C-550.72521643 1179.2647089 -549.49925302 1170.6686405 -548.27201271 1162.07275391 C-548.16554946 1161.32705407 -548.05908621 1160.58135423 -547.9493968 1159.81305742 C-547.84355937 1159.07174562 -547.73772194 1158.33043382 -547.62867731 1157.56665802 C-545.62962912 1143.56480048 -543.63355251 1129.56252731 -541.64388222 1115.5593338 C-540.73469967 1109.16133177 -539.82376973 1102.76359003 -538.90850449 1096.36645508 C-538.05746224 1090.41811575 -537.21088873 1084.46915831 -536.36787355 1078.51967621 C-536.06100483 1076.35972959 -535.7524785 1074.20001771 -535.44214976 1072.04056549 C-535.02172465 1069.11327426 -534.60729917 1066.18519418 -534.19438171 1063.25683594 C-534.01040701 1061.99122707 -534.01040701 1061.99122707 -533.82271564 1060.70005035 C-532.23418582 1052.5616358 -532.23418582 1052.5616358 -534.35083008 1045.14233398 C-534.98400146 1044.68157471 -535.61717285 1044.22081543 -536.26953125 1043.74609375 C-536.98343018 1043.20936035 -537.6973291 1042.67262695 -538.43286133 1042.11962891 C-539.61078247 1041.2869751 -539.61078247 1041.2869751 -540.8125 1040.4375 C-541.62420654 1039.83599121 -542.43591309 1039.23448242 -543.2722168 1038.61474609 C-545.83375179 1036.72258291 -548.41587102 1034.86114145 -551 1033 C-552.56435387 1031.85017422 -554.12690996 1030.6978978 -555.6875 1029.54296875 C-558.01470355 1027.82151282 -560.34336582 1026.10240073 -562.67895508 1024.39233398 C-568.67617486 1020.00119683 -574.59834377 1015.51854874 -580.5 1011 C-587.11938274 1005.9333719 -593.77503207 1000.92564541 -600.5 996 C-608.1214867 990.41770707 -615.64505411 984.71645212 -623.14648438 978.97412109 C-629.05251133 974.4614174 -635.00579406 970.01978752 -641 965.625 C-647.77795546 960.65413204 -654.47302822 955.59840546 -661.11914062 950.45214844 C-672.59054929 941.59545857 -684.14293139 932.85389129 -695.83447266 924.29003906 C-702.67733986 919.26616188 -709.42314718 914.12040641 -716.1640625 908.9609375 C-721.89902727 904.57935674 -727.67759563 900.26457042 -733.5 896 C-741.12740017 890.4133758 -748.65644565 884.70723662 -756.1640625 878.9609375 C-761.89902727 874.57935674 -767.67759563 870.26457042 -773.5 866 C-781.11409538 860.42312077 -788.63541919 854.73369372 -796.12231445 848.98730469 C-800.53650391 845.60755571 -804.97488335 842.27282964 -809.48046875 839.015625 C-810.35574219 838.38140625 -811.23101563 837.7471875 -812.1328125 837.09375 C-813.79553666 835.89374113 -815.4632788 834.70064468 -817.13671875 833.515625 C-818.25046875 832.71125 -818.25046875 832.71125 -819.38671875 831.890625 C-820.03858154 831.42688477 -820.69044434 830.96314453 -821.36206055 830.48535156 C-823.19994169 828.81868457 -824.03506928 827.26763283 -825 825 C-824.30161011 824.48953125 -824.30161011 824.48953125 -823.58911133 823.96875 C-814.15782657 817.06708243 -804.78030408 810.10367769 -795.5 803 C-788.11360554 797.34643428 -780.66805513 791.7852979 -773.1640625 786.2890625 C-766.32771275 781.26968278 -759.58781756 776.1292168 -752.85351562 770.97412109 C-746.94748867 766.4614174 -740.99420594 762.01978752 -735 757.625 C-728.22204454 752.65413204 -721.52697178 747.59840546 -714.88085938 742.45214844 C-703.40945071 733.59545857 -691.85706861 724.85389129 -680.16552734 716.29003906 C-674.22415777 711.92802089 -668.35293281 707.47981074 -662.5 703 C-655.11358208 697.34646605 -647.66805534 691.78529806 -640.1640625 686.2890625 C-634.22328567 681.92722968 -628.3524674 677.47945452 -622.5 673 C-615.11358208 667.34646605 -607.66805534 661.78529806 -600.1640625 656.2890625 C-594.22328388 651.92722837 -588.35252911 647.47937591 -582.5 643 C-575.85697112 637.91673943 -569.17879768 632.88968804 -562.4375 627.9375 C-561.67783936 627.37466309 -560.91817871 626.81182617 -560.13549805 626.23193359 C-555.9214233 623.11503807 -551.67108766 620.06609749 -547.3671875 617.07421875 C-545.51555048 615.75791732 -543.66398619 614.44151358 -541.8125 613.125 C-540.93198975 612.53066162 -540.05147949 611.93632324 -539.14428711 611.32397461 C-538.33999268 610.74526611 -537.53569824 610.16655762 -536.70703125 609.5703125 C-535.63159058 608.82418701 -535.63159058 608.82418701 -534.53442383 608.06298828 C-530.28632733 602.3515459 -533.86112296 590.88912759 -534.80880737 584.37199402 C-535.00585163 582.98864119 -535.2024017 581.6052179 -535.39850247 580.22173101 C-535.93690861 576.43342841 -536.48225083 572.6461524 -537.02874541 568.85900939 C-537.61773213 564.76866914 -538.20021988 560.677403 -538.78347778 556.58624268 C-539.79485023 549.49827338 -540.81023302 542.41088799 -541.82827377 535.32387352 C-543.3030684 525.05671639 -544.77099277 514.78858595 -546.23713197 504.52018968 C-548.61998189 487.83229102 -551.00730959 471.14503637 -553.39794922 454.45825195 C-553.54097411 453.45992269 -553.683999 452.46159342 -553.83135797 451.43301175 C-554.41072238 447.38901928 -554.99009105 443.34502743 -555.56946712 439.30103664 C-557.16087752 428.19274848 -558.75129496 417.08431824 -560.34130859 405.97583008 C-560.48355358 404.98205702 -560.62579856 403.98828396 -560.77235399 402.96439656 C-563.15007261 386.35208537 -565.52497599 369.73937258 -567.89824116 353.12642461 C-569.36007963 342.89465883 -570.8246235 332.66328708 -572.29274823 322.43242136 C-573.30046939 315.40900307 -574.30574027 308.38523688 -575.30914722 301.36120095 C-575.88681329 297.31812251 -576.46561008 293.27521476 -577.04756927 289.23275185 C-579.3094301 273.51659439 -581.55089287 257.81663566 -583 242 C-546.0377815 246.80239885 -509.14195736 252.0583369 -472.24462669 257.33067714 C-463.55455049 258.57230421 -454.86409736 259.81128375 -446.17361953 261.05009605 C-430.68397661 263.25815988 -415.19456013 265.4678076 -399.70532227 267.67871094 C-398.78626019 267.80989559 -397.86719811 267.94108025 -396.92028566 268.0762402 C-393.19373966 268.60816048 -389.46719408 269.14008374 -385.74064909 269.67201113 C-375.39004367 271.14944117 -365.0393924 272.62654992 -354.6887207 274.10351562 C-353.75778346 274.23635409 -352.82684622 274.36919255 -351.86769877 274.50605641 C-336.36941219 276.7175169 -320.87096828 278.92787315 -305.37242573 281.13753903 C-295.84703857 282.49566071 -286.32180437 283.85484657 -276.79676648 285.21541579 C-270.30438954 286.14274113 -263.81187703 287.06911296 -257.31925485 287.99471979 C-253.57387312 288.52871123 -249.82856059 289.0631771 -246.0834198 289.59885597 C-242.03391832 290.17806178 -237.98411659 290.75513998 -233.9342804 291.33200073 C-232.7412618 291.50300069 -231.54824321 291.67400064 -230.31907254 291.85018241 C-229.24208889 292.00323502 -228.16510524 292.15628763 -227.05548573 292.3139782 C-226.12070544 292.44742508 -225.18592516 292.58087196 -224.2228182 292.71836269 C-222.04274202 293.04189929 -222.04274202 293.04189929 -220 293 C-218.65128674 291.53825674 -218.65128674 291.53825674 -217.3046875 289.58203125 C-216.49064453 288.45861328 -216.49064453 288.45861328 -215.66015625 287.3125 C-215.07105469 286.4875 -214.48195313 285.6625 -213.875 284.8125 C-212.60317002 283.05742772 -211.3296709 281.30356404 -210.0546875 279.55078125 C-209.38920898 278.63506348 -208.72373047 277.7193457 -208.03808594 276.77587891 C-204.75408886 272.30306545 -201.37732764 267.90251451 -198 263.5 C-192.93269613 256.88114578 -187.92563418 250.22495261 -183 243.5 C-177.4133758 235.87259983 -171.70723662 228.34355435 -165.9609375 220.8359375 C-161.57935491 215.10097033 -157.26467721 209.3223279 -153 203.5 C-147.4316962 195.90022153 -141.75419826 188.39010542 -136.03125 180.90625 C-131.4876604 174.96193914 -126.9806331 168.99188748 -122.5 163 C-117.35176712 156.11534074 -112.15954149 149.26632348 -106.9375 142.4375 C-101.3066729 135.07077245 -95.76779819 127.64396646 -90.28881836 120.16381836 C-85.26529165 113.32156327 -80.11998077 106.57629671 -74.9609375 99.8359375 C-70.57935674 94.10097273 -66.26457042 88.32240437 -62 82.5 C-56.4133758 74.87259983 -50.70723662 67.34355435 -44.9609375 59.8359375 C-40.57935579 54.10097147 -36.26462136 48.32236825 -32 42.5 C-25.66425654 33.85125066 -19.17961087 25.32145855 -12.66796875 16.8046875 C-8.40734151 11.23132646 -4.19241147 5.62481873 0 0 Z " fill="#000000" transform="translate(917,0)"/>
<path d="M0 0 C-1.46431749 3.97588551 -3.35235796 7.47593319 -5.51953125 11.11328125 C-5.85997971 11.68652634 -6.20042816 12.25977142 -6.55119324 12.85038757 C-7.63496526 14.67309858 -8.72374821 16.49276021 -9.8125 18.3125 C-10.53220919 19.52260324 -11.25161295 20.73288819 -11.97070312 21.94335938 C-15.57831851 28.00637749 -19.22945696 34.03676396 -23 40 C-26.97876077 38.79966941 -30.5717055 37.27519797 -34.24609375 35.3359375 C-62.99719442 20.17942165 -97.61620535 12.24254368 -130 11 C-131.05445313 10.95875 -132.10890625 10.9175 -133.1953125 10.875 C-164.59104484 10.28122728 -195.84090037 17.20766453 -224 31 C-224.78262207 31.38172363 -225.56524414 31.76344727 -226.37158203 32.15673828 C-244.99627482 41.34662817 -261.36086668 52.90065548 -276.6875 66.91015625 C-278.64985514 68.68356841 -280.64661409 70.38150245 -282.6875 72.0625 C-318.14038655 102.27771273 -338.69033262 155.91409512 -342.82128906 201.16845703 C-343.21053691 207.33580209 -343.24481376 213.51007841 -343.25 219.6875 C-343.25067474 220.41376587 -343.25134949 221.14003174 -343.25204468 221.88830566 C-343.22232972 242.14446697 -340.42341563 261.47336102 -335 281 C-334.79036621 281.75555176 -334.58073242 282.51110352 -334.36474609 283.28955078 C-320.46160029 331.82747704 -286.10368951 373.3467816 -242.21875 397.68920898 C-217.75530657 410.97027755 -191.7849086 419.26914041 -164 422 C-162.90300781 422.11085938 -161.80601562 422.22171875 -160.67578125 422.3359375 C-131.36452893 424.85513921 -101.94362173 421.75584687 -73.6875 413.6875 C-72.77049316 413.42815674 -71.85348633 413.16881348 -70.90869141 412.90161133 C-61.91233729 410.21633353 -53.81618987 406.63019583 -45 403 C-44.67 362.41 -44.34 321.82 -44 280 C-78.98 280 -113.96 280 -150 280 C-150 266.14 -150 252.28 -150 238 C-100.17 238 -50.34 238 1 238 C1.40303034 286.90997108 1.40303034 286.90997108 1.48828125 307.37890625 C1.54765812 321.52201523 1.61752313 335.66452923 1.75439453 349.80712891 C1.85402318 360.106427 1.91857156 370.40524325 1.94088495 380.70500982 C1.95393012 386.15968618 1.9846131 391.61298403 2.05730057 397.06721878 C2.12516181 402.20088302 2.14612061 407.33260083 2.13107681 412.46667099 C2.13382886 414.35095042 2.15373581 416.23529463 2.19205475 418.1191864 C2.46759034 432.36375148 2.46759034 432.36375148 -1.15301895 436.40044785 C-3.74023518 437.98741358 -6.13479042 439.02228005 -9 440 C-10.42865165 440.72542796 -11.84892271 441.46801343 -13.25390625 442.23828125 C-39.17512665 454.92287846 -66.47410819 462.96146909 -95 467 C-96.89045044 467.26925293 -96.89045044 467.26925293 -98.8190918 467.54394531 C-112.08358507 469.29200407 -125.32495982 469.39841152 -138.6875 469.375 C-139.85575317 469.37445618 -141.02400635 469.37391235 -142.22766113 469.37335205 C-198.24594218 469.25364259 -252.91929977 455.44413549 -298 421 C-298.56203125 420.57928223 -299.1240625 420.15856445 -299.703125 419.72509766 C-312.12340289 410.42037934 -324.24423425 400.12532811 -334 388 C-334.89663545 386.92666547 -335.7938264 385.85379489 -336.69140625 384.78125 C-344.24398887 375.65823116 -350.86874532 366.12851422 -357 356 C-357.42522949 355.30068359 -357.85045898 354.60136719 -358.28857422 353.88085938 C-393.15565093 295.80928064 -400.6435345 222.12869785 -384.73876953 156.86279297 C-375.88982967 122.57241991 -360.05294222 89.7479328 -338 62 C-337.29617188 61.10410156 -336.59234375 60.20820312 -335.8671875 59.28515625 C-329.92615951 51.86419476 -323.52965314 44.9003533 -317 38 C-316.36191406 37.319375 -315.72382812 36.63875 -315.06640625 35.9375 C-310.11822205 30.81132356 -304.5751748 26.4209394 -299 22 C-298.01 21.20464844 -297.02 20.40929688 -296 19.58984375 C-216.63205473 -43.01162308 -101.53549601 -52.68290452 0 0 Z " fill="#545454" transform="translate(1355,1924)"/>
<path d="M0 0 C3.11243663 1.55621832 3.63980635 4.61606727 4.84375 7.71484375 C5.12455414 8.41966385 5.40535828 9.12448395 5.69467163 9.85066223 C6.30935 11.39372517 6.92122911 12.93790533 7.53070068 14.48303223 C9.20331447 18.71843874 10.90122019 22.9436311 12.6015625 27.16796875 C12.95888458 28.05594147 13.31620667 28.94391418 13.68435669 29.85879517 C17.60142007 39.5523157 21.73009333 49.15224181 25.875 58.75 C40.62643829 92.96010281 54.68578842 127.45765241 68.7565918 161.95202637 C70.04769359 165.11691157 71.33924638 168.28161246 72.63085938 171.44628906 C75.40109339 178.23447426 78.16981553 185.02327492 80.9375 191.8125 C81.4013913 192.95041992 81.86528259 194.08833984 82.3432312 195.26074219 C87.24511217 207.28811023 92.13621773 219.31962544 96.98828125 231.3671875 C106.38530944 254.6969573 115.9473461 277.94724384 125.6966095 301.13200378 C139.10674211 333.03648002 152.18827191 365.07208271 165.09371948 397.18354797 C176.95921038 426.70464511 188.91580395 456.16381638 201.62890625 485.33203125 C202.07916168 486.36640572 202.07916168 486.36640572 202.53851318 487.42167664 C203.96258624 490.69288012 205.39031885 493.96231758 206.82861328 497.22729492 C207.33247559 498.3794751 207.83633789 499.53165527 208.35546875 500.71875 C208.79528076 501.71841797 209.23509277 502.71808594 209.68823242 503.74804688 C211.30785794 507.76319892 212.6308896 511.89266881 214 516 C197.83 516 181.66 516 165 516 C146.2504794 472.25111861 128.27954792 428.21124991 111.05589294 383.83964539 C108.72950924 377.8536141 106.37253428 371.88038421 103.99609375 365.9140625 C103.68427658 365.12971329 103.37245941 364.34536407 103.05119324 363.5372467 C101.29238097 359.11246573 101.29238097 359.11246573 99.52340698 354.69174194 C98.74819067 352.76105652 97.97897395 350.82808151 97.2109375 348.89453125 C96.78087402 347.82050049 96.35081055 346.74646973 95.90771484 345.63989258 C95 343 95 343 95 340 C32.63 340 -29.74 340 -94 340 C-94.33 341.65 -94.66 343.3 -95 345 C-95.97530877 347.74854843 -96.98487698 350.46344231 -98.04296875 353.1796875 C-98.35877899 353.9990831 -98.67458923 354.8184787 -98.99996948 355.66270447 C-100.05780171 358.40197257 -101.12227122 361.13860038 -102.1875 363.875 C-102.5573703 364.8286142 -102.9272406 365.78222839 -103.30831909 366.76473999 C-122.73162508 416.83550724 -142.92392817 466.60295665 -164 516 C-179.84 516 -195.68 516 -212 516 C-211.32097572 512.60487861 -210.80991865 510.22107369 -209.51977539 507.16748047 C-209.2168457 506.44400925 -208.91391602 505.72053802 -208.60180664 504.97514343 C-208.27043701 504.19701797 -207.93906738 503.41889252 -207.59765625 502.6171875 C-207.24880371 501.78753983 -206.89995117 500.95789215 -206.54052734 500.10310364 C-205.38541911 497.35859675 -204.22387307 494.61686099 -203.0625 491.875 C-202.24550662 489.93616681 -201.42902743 487.99711688 -200.61303711 486.05786133 C-198.91727514 482.02907019 -197.21930455 478.00122143 -195.51953125 473.97412109 C-191.68454341 464.88528061 -187.87198522 455.78705322 -184.0625 446.6875 C-183.69307281 445.8052475 -183.32364563 444.922995 -182.94302368 444.01400757 C-167.78009281 407.79348001 -152.89944263 371.4590442 -138.10539246 335.08653259 C-133.72801332 324.32647799 -129.33512945 313.5727797 -124.94146729 302.81936646 C-116.23697657 281.51317121 -107.5855907 260.18588032 -98.95996094 238.84765625 C-86.03396726 206.87375038 -73.022052 174.93488221 -60 143 C-59.55384338 141.90576721 -59.10768677 140.81153442 -58.64801025 139.68414307 C-53.5853313 127.26771195 -48.5193454 114.85264268 -43.44659424 102.44032288 C-41.28246536 97.1438419 -39.12282035 91.84557701 -36.96867371 86.54502869 C-28.93560914 66.78514079 -20.70292631 47.11310592 -12.35351944 27.48504257 C-11.56474843 25.63028707 -10.77674348 23.77520758 -9.98886108 21.92007446 C-8.51759077 18.45850081 -7.04271445 14.9984901 -5.56640625 11.5390625 C-5.11929291 10.48693069 -4.67217957 9.43479889 -4.21151733 8.3507843 C-3.59743515 6.91571785 -3.59743515 6.91571785 -2.97094727 5.45166016 C-2.61283463 4.61220856 -2.25472198 3.77275696 -1.88575745 2.90786743 C-1 1 -1 1 0 0 Z M0 102 C-0.26522461 102.92369385 -0.53044922 103.8473877 -0.80371094 104.79907227 C-3.89078785 115.25195418 -7.81740488 125.21565081 -12.09533691 135.23275757 C-13.2906502 138.03272112 -14.47606325 140.83670808 -15.65917969 143.6418457 C-17.30510503 147.54303713 -18.95386494 151.44300608 -20.60546875 155.34179688 C-34.99708647 189.33081789 -48.62188159 223.60021639 -62 258 C-62.40871338 259.05002197 -62.81742676 260.10004395 -63.23852539 261.18188477 C-65.46148917 266.89362277 -67.67977317 272.60712975 -69.88909912 278.32415771 C-70.54140441 280.01188104 -71.19458915 281.69926475 -71.84869385 283.3862915 C-72.73338177 285.67025132 -73.61357862 287.95588353 -74.4921875 290.2421875 C-74.75038269 290.90700134 -75.00857788 291.57181519 -75.27459717 292.2567749 C-76.57818037 295.5346012 -76.57818037 295.5346012 -77 299 C-25.85 299 25.3 299 78 299 C75.76141234 291.34111552 75.76141234 291.34111552 73.08422852 283.92675781 C72.55779251 282.61096237 72.55779251 282.61096237 72.02072144 281.26858521 C71.64392242 280.33948334 71.26712341 279.41038147 70.87890625 278.453125 C70.47116974 277.43725311 70.06343323 276.42138123 69.64334106 275.37472534 C68.28710218 271.99817611 66.92480352 268.62410646 65.5625 265.25 C64.5924036 262.83856038 63.62277002 260.42693452 62.65356445 258.01513672 C61.10070215 254.15098864 59.54754447 250.28696154 57.99253845 246.42367554 C54.24960901 237.12276413 50.52660698 227.81403387 46.81436729 218.50083351 C30.2716712 176.88697362 30.2716712 176.88697362 13.1472168 135.51025391 C9.81077594 127.59584736 6.71447587 119.65300909 3.9458313 111.52006531 C2.82018981 108.22583891 1.67467582 105.05812502 0 102 Z " fill="#545454" transform="translate(517,1872)"/>
<path d="M0 0 C0.66 0 1.32 0 2 0 C2.57778198 1.41865356 2.57778198 1.41865356 3.16723633 2.8659668 C11.07703204 22.27335189 19.07739722 41.63920642 27.25 60.9375 C44.13914434 100.83379946 60.69536607 140.86140298 77 181 C77.3465564 181.85295654 77.69311279 182.70591309 78.0501709 183.5847168 C83.72641693 197.55627404 89.39638935 211.53039338 95.02903748 225.51959229 C104.39735232 248.78463206 113.96311748 271.95826676 123.67710876 295.08097839 C134.13958487 319.99363507 144.42699685 344.97802839 154.625 370 C155.08464142 371.12763763 155.54428284 372.25527527 156.01785278 373.41708374 C161.32940852 386.45422304 166.6109769 399.50291029 171.84765625 412.5703125 C182.25847634 438.53386559 192.85911483 464.38072646 204.06640625 490.01171875 C204.5767466 491.17933746 204.5767466 491.17933746 205.09739685 492.37054443 C206.67699456 495.98242132 208.26157367 499.59194793 209.85498047 503.19775391 C210.41267535 504.47157444 210.97014433 505.74549391 211.52734375 507.01953125 C212.0080835 508.10983643 212.48882324 509.2001416 212.98413086 510.32348633 C214 513 214 513 214 516 C198.16 516 182.32 516 166 516 C162.93066304 509.86132608 159.99223361 503.87463038 157.39501953 497.55541992 C157.0715794 496.77630816 156.74813927 495.99719639 156.41489792 495.19447517 C155.35846023 492.64563707 154.30783073 490.09445747 153.2578125 487.54296875 C152.50630459 485.72347369 151.75476794 483.90399049 151.00320435 482.08451843 C143.17911459 463.11090406 135.54727382 444.06064007 127.94592285 424.99694824 C126.51527215 421.41078165 125.08202574 417.82565509 123.64873886 414.24054146 C119.44045415 403.71392838 115.24335807 393.18289762 111.05381775 382.64881134 C109.97122395 379.9276703 108.8875948 377.20694314 107.80383301 374.48626709 C106.01784608 370.0015943 104.23569061 365.51541633 102.45636368 361.02809715 C101.78675498 359.34082932 101.11600136 357.65401538 100.44405746 355.96767616 C99.52212801 353.65314144 98.60449187 351.33695122 97.68798828 349.02026367 C97.41350986 348.33384733 97.13903145 347.64743099 96.8562355 346.94021416 C95 342.22841509 95 342.22841509 95 340 C32.96 340.33 -29.08 340.66 -93 341 C-97.95 353.87 -102.9 366.74 -108 380 C-112.31112817 390.89341851 -116.62209592 401.78562069 -120.98382568 412.65869141 C-122.2698108 415.86534271 -123.5548392 419.07237408 -124.83892822 422.27978516 C-134.41650956 446.19869223 -144.08102631 470.07848696 -154.08532715 493.82275391 C-155.12184322 496.29003011 -156.15137296 498.76017009 -157.18066406 501.23046875 C-157.91467958 502.98699336 -158.64872844 504.74350404 -159.3828125 506.5 C-159.72859344 507.33249268 -160.07437439 508.16498535 -160.43063354 509.02270508 C-162.88694199 514.88694199 -162.88694199 514.88694199 -164 516 C-165.50418739 516.09311889 -167.01271356 516.11746028 -168.51977539 516.11352539 C-169.96115623 516.11341209 -169.96115623 516.11341209 -171.43165588 516.11329651 C-172.476436 516.10813522 -173.52121613 516.10297394 -174.59765625 516.09765625 C-175.66165146 516.0962413 -176.72564667 516.09482635 -177.82188416 516.09336853 C-181.23545083 516.08775064 -184.648953 516.07519511 -188.0625 516.0625 C-190.37044176 516.05748731 -192.67838455 516.052924 -194.98632812 516.04882812 C-200.65757426 516.0377754 -206.32878253 516.02101987 -212 516 C-210.02763581 509.78562607 -207.74822735 503.78125374 -205.18359375 497.7890625 C-204.81528442 496.92050125 -204.4469751 496.05194 -204.06750488 495.15705872 C-203.27449193 493.28782719 -202.47996252 491.4192384 -201.68405151 489.55123901 C-199.97360769 485.53602794 -198.2714387 481.51732564 -196.56874084 477.49882507 C-195.68542837 475.4142894 -194.80174777 473.32990968 -193.91770935 471.24568176 C-181.51598186 442.00400931 -169.35656839 412.66543953 -157.36595154 383.25302124 C-154.77215605 376.89069015 -152.17318632 370.5304973 -149.5703125 364.171875 C-149.20461151 363.27849426 -148.83891052 362.38511353 -148.46212769 361.46466064 C-147.72136644 359.65510565 -146.9805929 357.8455557 -146.23980713 356.03601074 C-138.68181367 337.57158237 -131.13780789 319.10144358 -123.60205078 300.62792969 C-119.40445583 290.33815593 -115.20302178 280.0499887 -110.9921875 269.765625 C-102.08135948 247.99299998 -93.2596692 226.18826769 -84.5508728 204.33401489 C-78.57144651 189.33696654 -72.47893602 174.39239349 -66.26629639 159.49053955 C-60.91277187 146.64929189 -55.64463113 133.7762989 -50.4375 120.875 C-34.08034857 80.38290672 -17.20751165 40.13804951 0 0 Z M0 104 C-0.34393799 105.08764648 -0.68787598 106.17529297 -1.04223633 107.29589844 C-4.39400113 117.71880103 -8.26282211 127.78376432 -12.63064575 137.81954956 C-14.5134786 142.14950513 -16.36792639 146.49164806 -18.2265625 150.83203125 C-18.61616653 151.74034195 -19.00577057 152.64865265 -19.40718079 153.58448792 C-31.83563744 182.59652923 -43.64996175 211.85373471 -55.01806641 241.29582214 C-57.47517589 247.65639 -59.95597402 254.00745147 -62.4453125 260.35546875 C-63.18337044 262.23916827 -63.92140778 264.12287586 -64.65942383 266.0065918 C-65.72284928 268.72065134 -66.78677139 271.43450879 -67.85263062 274.14761353 C-68.82703899 276.62883897 -69.79857812 279.11117079 -70.76953125 281.59375 C-71.19499741 282.67386604 -71.19499741 282.67386604 -71.62905884 283.77580261 C-73.59575571 288.81464 -75.28389685 293.85169055 -77 299 C-25.52 299 25.96 299 79 299 C73.90550344 285.40608484 73.90550344 285.40608484 68.62548828 271.88842773 C68.23090927 270.8953511 67.83633026 269.90227448 67.42979431 268.87910461 C66.14490909 265.64662511 64.85772002 262.41506943 63.5703125 259.18359375 C62.65306827 256.87853591 61.73590491 254.57344589 60.81881714 252.26832581 C58.89850476 247.44270095 56.97700515 242.61755098 55.0546875 237.79272461 C53.11781155 232.93107653 51.18256838 228.06878437 49.24902344 223.20581055 C38.45563297 196.05988071 27.59901749 168.94469752 16.44734955 141.94374371 C13.64060313 135.14232296 10.87782619 128.32340991 8.125 121.5 C7.71029449 120.47266251 7.29558899 119.44532501 6.86831665 118.38685608 C4.95911945 113.64010404 3.292284 108.95148818 2 104 C1.34 104 0.68 104 0 104 Z " fill="#545454" transform="translate(1622,1872)"/>
<path d="M0 0 C101.97 0 203.94 0 309 0 C309 15.18 309 30.36 309 46 C265.77 46 222.54 46 178 46 C178 193.51 178 341.02 178 493 C161.83 493 145.66 493 129 493 C129 345.49 129 197.98 129 46 C86.43 46 43.86 46 0 46 C0 30.82 0 15.64 0 0 Z " fill="#555555" transform="translate(0,1895)"/>
<path d="M0 0 C16.17 0 32.34 0 49 0 C49 162.69 49 325.38 49 493 C32.83 493 16.66 493 0 493 C0 330.31 0 167.62 0 0 Z " fill="#545454" transform="translate(810,1895)"/>
</svg>
