<?xml version="1.0" encoding="UTF-8"?>
<svg version="1.1" xmlns="http://www.w3.org/2000/svg" width="1667" height="1667">
<path d="M0 0 C3.79250106 3.66219813 7.16164024 7.4975053 10.4375 11.625 C11.2123877 12.59735596 11.2123877 12.59735596 12.00292969 13.58935547 C16.64704703 19.46459417 21.08789951 25.48150215 25.50561523 31.52783203 C29.93008251 37.57627237 34.44342006 43.55058382 39 49.5 C44.65378534 56.8862222 50.21470585 64.33195 55.7109375 71.8359375 C60.07277032 77.77671433 64.52054548 83.6475326 69 89.5 C74.65353395 96.88641792 80.21470194 104.33194466 85.7109375 111.8359375 C90.07277032 117.77671433 94.52054548 123.6475326 99 129.5 C104.65353395 136.88641792 110.21470194 144.33194466 115.7109375 151.8359375 C120.07277032 157.77671433 124.52054548 163.6475326 129 169.5 C134.06651784 176.1194735 139.07422941 182.77511787 144 189.5 C149.5683038 197.09977847 155.24580174 204.60989458 160.96875 212.09375 C166.13874634 218.85757951 171.25468981 225.66009244 176.35302734 232.47802734 C180.88693851 238.53394383 185.4670712 244.55317814 190.0625 250.5625 C195.77746523 258.03836725 201.41338765 265.56646008 206.95727539 273.17016602 C210.31374218 277.76143586 213.74459839 282.28938972 217.21728516 286.79296875 C217.67855301 287.39185913 218.13982086 287.99074951 218.61506653 288.60778809 C219.74300528 290.07214565 220.8714508 291.53611285 222 293 C243.54451702 289.96342065 265.08878061 286.92504634 286.63288593 283.88554746 C291.33941751 283.22154141 296.04595581 282.55758303 300.75251007 281.89373779 C347.87869388 275.2467127 395.00202856 268.58018002 442.11917162 261.86934304 C446.53614928 261.24029013 450.95315726 260.6114503 455.3701669 259.98262197 C460.81824107 259.20699995 466.26630073 258.43127607 471.71435547 257.65551758 C472.78237231 257.50344121 473.85038915 257.35136484 474.95077014 257.19468009 C487.75023075 255.37203543 500.54939187 253.54731017 513.34815216 251.71975416 C521.41142265 250.56850493 529.47496261 249.41915641 537.53870964 248.27124983 C543.11686432 247.47706505 548.69467724 246.68053632 554.27223456 245.88216764 C557.66009445 245.39782427 561.04827953 244.91578864 564.43656707 244.43444693 C565.99485422 244.21260086 567.55300525 243.98979618 569.11100793 243.76596105 C571.22358243 243.46258375 573.33661427 243.16262083 575.44979858 242.86352539 C576.62643759 242.69558975 577.80307659 242.52765411 579.01537132 242.35462952 C582 242 582 242 586 242 C585.43220059 250.53492531 584.5575941 258.96185876 583.33236694 267.42619324 C583.16494228 268.60667042 582.99751762 269.78714759 582.82501948 271.00339681 C582.36493716 274.24139843 581.90116113 277.47884469 581.43574214 280.71608269 C580.93222542 284.22492891 580.43359981 287.73447067 579.93435669 291.243927 C579.06894816 297.32268229 578.20051217 303.40099874 577.32999802 309.47902489 C576.06363759 318.32102417 574.80210277 327.1637069 573.54169829 336.00655691 C571.48593127 350.42874093 569.42653462 364.85040418 567.36474609 379.27172852 C565.38073445 393.14910601 563.39804904 407.02667168 561.41748047 420.90454102 C561.2962472 421.75401915 561.17501393 422.60349728 561.05010693 423.47871717 C559.83701013 431.979052 558.62413981 440.47941914 557.41133498 448.97979563 C556.93384948 452.32641739 556.4563534 455.67303764 555.97885136 459.01965704 C555.74250281 460.67613519 555.50615831 462.33261391 555.2698179 463.98909322 C553.68038809 475.12899939 552.08942071 486.26868487 550.49728598 497.40820474 C548.3637607 512.33589347 546.23454356 527.264189 544.11095428 542.19329453 C543.37465356 547.36948328 542.63686078 552.54545592 541.89783478 557.72125626 C541.04497307 563.69633584 540.19630466 569.67199572 539.35107541 575.64815962 C539.04467958 577.80996908 538.73688048 579.9715802 538.42755961 582.13297307 C538.00963422 585.0550578 537.59686106 587.97782445 537.18545532 590.90083313 C537.06361382 591.74429924 536.94177231 592.58776535 536.81623864 593.45679104 C536.23016238 597.66287814 535.74644014 601.74153584 536 606 C537.16762026 607.71008604 537.16762026 607.71008604 538.98046875 608.8671875 C539.63901855 609.35179443 540.29756836 609.83640137 540.97607422 610.33569336 C541.70584473 610.84366455 542.43561523 611.35163574 543.1875 611.875 C544.75708392 613.01874463 546.32606759 614.16331334 547.89453125 615.30859375 C548.72807129 615.90784668 549.56161133 616.50709961 550.42041016 617.12451172 C554.80304779 620.31090414 559.07971496 623.63490483 563.375 626.9375 C570.80337217 632.61002594 578.2954672 638.18773141 585.83544922 643.71069336 C592.67800952 648.73430028 599.4234709 653.87984137 606.1640625 659.0390625 C611.89902727 663.42064326 617.67759563 667.73542958 623.5 672 C631.12740017 677.5866242 638.65644565 683.29276338 646.1640625 689.0390625 C651.89902727 693.42064326 657.67759563 697.73542958 663.5 702 C671.12740017 707.5866242 678.65644565 713.29276338 686.1640625 719.0390625 C691.89902727 723.42064326 697.67759563 727.73542958 703.5 732 C711.12526593 737.585061 718.65283255 743.28881088 726.1574707 749.03466797 C731.95380929 753.46423345 737.79953926 757.81815557 743.6875 762.125 C750.63845489 767.21162593 757.46032026 772.43997185 764.23779297 777.75488281 C770.29835928 782.49196817 776.46935489 787.06317489 782.67700195 791.60498047 C789.62665537 796.69936071 796.4830911 801.91027537 803.328125 807.14404297 C811.18082843 813.14705743 819.08046078 819.08554921 827 825 C822.94506868 829.26960415 818.53769668 832.85061581 813.875 836.4375 C813.08875244 837.04585693 812.30250488 837.65421387 811.49243164 838.28100586 C805.07566616 843.22338331 798.56852016 848.03725372 792.03417969 852.82250977 C784.70131502 858.19779624 777.48143711 863.7124309 770.2734375 869.25341797 C758.65047221 878.18283095 746.98896803 887.04942515 735.16455078 895.71069336 C729.22349078 900.07244521 723.35260927 904.5204369 717.5 909 C710.11358208 914.65353395 702.66805534 920.21470194 695.1640625 925.7109375 C689.22328567 930.07277032 683.3524674 934.52054548 677.5 939 C670.11358208 944.65353395 662.66805534 950.21470194 655.1640625 955.7109375 C649.22328567 960.07277032 643.3524674 964.52054548 637.5 969 C630.11358208 974.65353395 622.66805534 980.21470194 615.1640625 985.7109375 C608.32393705 990.73308941 601.58009006 995.87611662 594.8425293 1001.03466797 C589.04619132 1005.46423298 583.20048198 1009.818185 577.3125 1014.125 C570.27968966 1019.27104786 563.34511893 1024.52595404 556.52929688 1029.95703125 C552.94984737 1032.7924917 549.3660548 1035.46207236 545.50390625 1037.90234375 C544.79717773 1038.36423096 544.09044922 1038.82611816 543.36230469 1039.30200195 C542.04142178 1040.15453465 540.69749686 1040.97285074 539.32910156 1041.74682617 C537.34435844 1043.04955227 536.27713741 1043.99146998 535 1046 C534.84619042 1048.56259553 534.84619042 1048.56259553 535.23397636 1051.4075613 C535.34921079 1052.48205182 535.46444522 1053.55654234 535.58317161 1054.66359317 C535.72072498 1055.76460743 535.85827835 1056.86562168 536 1058 C536.12448839 1058.99995219 536.24897679 1059.99990439 536.37723756 1061.03015816 C536.7963267 1064.21217224 537.24686409 1067.38842076 537.70559692 1070.56495667 C537.87710514 1071.77245872 538.04861336 1072.97996077 538.22531879 1074.2240538 C538.69730389 1077.54212423 539.1723734 1080.85972533 539.64880085 1084.17715895 C540.16408006 1087.770641 540.67528624 1091.36470277 541.18699646 1094.95869446 C542.07415917 1101.18581771 542.96383013 1107.41257837 543.85519791 1113.63910103 C545.15185123 1122.69689899 546.44433446 1131.75528834 547.7358049 1140.81382655 C549.84208884 1155.5869515 551.95127969 1170.35965983 554.0625 1185.13208008 C556.09433054 1199.3490732 558.12550997 1213.56615887 560.15527344 1227.78344727 C560.34160383 1229.0885739 560.34160383 1229.0885739 560.53169848 1230.42006672 C561.89754086 1239.98717245 563.26301817 1249.55433022 564.62800407 1259.12155819 C564.74923589 1259.97127338 564.8704677 1260.82098858 564.99537321 1261.69645272 C565.48116263 1265.1014049 565.96694499 1268.50635808 566.4526789 1271.91131818 C567.74297468 1280.95617121 569.03387715 1290.00093653 570.32703018 1299.04538155 C575.6606185 1336.34908446 580.93489083 1373.6586582 586 1411 C578.4590695 1411.28774294 571.19382456 1410.18441087 563.74629211 1409.10180664 C562.29521441 1408.89508732 560.84406623 1408.68886214 559.39285439 1408.48308659 C555.41790165 1407.91801711 551.44397424 1407.34600839 547.47018087 1406.77285051 C543.17969728 1406.15527374 538.88828824 1405.54419202 534.59698486 1404.93234253 C527.16521619 1403.87185575 519.73403075 1402.80735986 512.30321693 1401.74020386 C501.55421286 1400.19658362 490.80423794 1398.65981395 480.05399611 1397.12484038 C462.604666 1394.63321423 445.15597964 1392.13711089 427.70776367 1389.63769531 C426.66389345 1389.48816457 425.62002323 1389.33863384 424.54452058 1389.18457186 C420.31456175 1388.57864039 416.08460347 1387.97270509 411.85464619 1387.36676282 C400.20358721 1385.69780388 388.55238388 1384.02985382 376.90112305 1382.36230469 C375.8576164 1382.21295491 374.81410976 1382.06360513 373.7389817 1381.9097296 C356.35154761 1379.42129344 338.96371591 1376.93564444 321.57564706 1374.45164776 C310.84941849 1372.91917104 300.12358786 1371.38395879 289.39825466 1369.84522796 C282.05442227 1368.79176351 274.71025035 1367.74069006 267.36580459 1366.69151044 C263.12598495 1366.08573775 258.88634289 1365.47878281 254.64713097 1364.8687706 C250.76850761 1364.31065994 246.88944105 1363.7557456 243.00999405 1363.20339 C241.60486281 1363.0027378 240.19990173 1362.8008897 238.79512922 1362.59774125 C236.8887464 1362.32222271 234.98168336 1362.05142309 233.07458973 1361.78086853 C232.01457022 1361.6289804 230.95455072 1361.47709227 229.86240941 1361.32060146 C227.19395868 1361.02172416 224.68040444 1360.83930109 222 1361 C220.27311143 1362.32202459 220.27311143 1362.32202459 218.94140625 1364.26953125 C218.39822754 1364.98343018 217.85504883 1365.6973291 217.29541016 1366.43286133 C216.43761963 1367.61078247 216.43761963 1367.61078247 215.5625 1368.8125 C214.64670166 1370.03005981 214.64670166 1370.03005981 213.71240234 1371.2722168 C211.79107983 1373.83586911 209.89355281 1376.41578814 208 1379 C206.84551265 1380.56284033 205.69057845 1382.12535068 204.53515625 1383.6875 C202.82069036 1386.00996039 201.10902918 1388.33431545 199.40380859 1390.66357422 C193.57810042 1398.61687585 187.59291226 1406.44553427 181.60546875 1414.27734375 C178.88400925 1417.83735601 176.18127105 1421.40965039 173.5 1425 C170.16065071 1429.47154772 166.78022743 1433.91017645 163.390625 1438.34375 C156.94082638 1446.7818324 150.56609608 1455.26603675 144.2902832 1463.83422852 C139.26621604 1470.67709744 134.12047632 1477.42305585 128.9609375 1484.1640625 C124.57935674 1489.89902727 120.26457042 1495.67759563 116 1501.5 C110.4133758 1509.12740017 104.70723662 1516.65644565 98.9609375 1524.1640625 C94.57935674 1529.89902727 90.26457042 1535.67759563 86 1541.5 C80.4133758 1549.12740017 74.70723662 1556.65644565 68.9609375 1564.1640625 C64.57935674 1569.89902727 60.26457042 1575.67759563 56 1581.5 C50.414939 1589.12526593 44.71118912 1596.65283255 38.96533203 1604.1574707 C34.53576655 1609.95380929 30.18183364 1615.79953076 25.875 1621.6875 C19.55464753 1630.32462014 13.02129774 1638.78427137 6.40356445 1647.19506836 C5.38009348 1648.51121394 4.39960617 1649.86111473 3.44604492 1651.22875977 C2.9688501 1651.81326904 2.49165527 1652.39777832 2 1653 C1.34 1653 0.68 1653 0 1653 C-1.25830078 1651.58911133 -1.25830078 1651.58911133 -2.6953125 1649.58203125 C-3.23800781 1648.83308594 -3.78070312 1648.08414062 -4.33984375 1647.3125 C-5.22349609 1646.075 -5.22349609 1646.075 -6.125 1644.8125 C-7.39682998 1643.05742772 -8.6703291 1641.30356404 -9.9453125 1639.55078125 C-10.61079102 1638.63506348 -11.27626953 1637.7193457 -11.96191406 1636.77587891 C-15.24591114 1632.30306545 -18.62267236 1627.90251451 -22 1623.5 C-27.65441483 1616.11426818 -33.21471573 1608.66803651 -38.7109375 1601.1640625 C-43.07277032 1595.22328567 -47.52054548 1589.3524674 -52 1583.5 C-57.65353395 1576.11358208 -63.21470194 1568.66805534 -68.7109375 1561.1640625 C-73.07277032 1555.22328567 -77.52054548 1549.3524674 -82 1543.5 C-87.06652003 1536.88052364 -92.07410611 1530.2247938 -97 1523.5 C-104.52896915 1513.22776853 -112.25830348 1503.11235957 -120 1493 C-128.32925822 1482.12015553 -136.61434746 1471.21764548 -144.71142578 1460.16357422 C-149.0729113 1454.22282379 -153.52068454 1448.35228572 -158 1442.5 C-163.65353395 1435.11358208 -169.21470194 1427.66805534 -174.7109375 1420.1640625 C-179.07277101 1414.22328473 -183.52058269 1408.35249694 -188 1402.5 C-192.59704212 1396.49317611 -197.16366371 1390.46800167 -201.64477539 1384.37402344 C-202.8246926 1382.77037727 -204.00994814 1381.17064298 -205.20092773 1379.57519531 C-207.74301791 1376.15746786 -210.19871691 1372.75304691 -212.4140625 1369.11328125 C-214.4381573 1365.94465284 -216.20308456 1363.5010793 -219 1361 C-221.55106666 1360.52508341 -221.55106666 1360.52508341 -224.37191772 1361.0091095 C-226.10937822 1361.21272315 -226.10937822 1361.21272315 -227.88193893 1361.42045021 C-229.25482284 1361.61222928 -230.62749593 1361.80552121 -232 1362 C-233.60961052 1362.21096364 -235.21935662 1362.42089456 -236.82921219 1362.62998009 C-242.72140657 1363.41106352 -248.60368264 1364.25806692 -254.48681641 1365.10424805 C-256.75166795 1365.42686317 -259.01657224 1365.7491082 -261.28152466 1366.0710144 C-267.43236795 1366.94625505 -273.58246734 1367.82662552 -279.73245287 1368.70787024 C-285.612884 1369.54963187 -291.49388365 1370.38739933 -297.3748794 1371.22520492 C-309.13205385 1372.90025065 -320.8887055 1374.57893658 -332.64501953 1376.26000977 C-348.57941964 1378.53850691 -364.51439053 1380.81298924 -380.44955665 1383.08612236 C-383.8483851 1383.57097641 -387.24720349 1384.055901 -390.6460228 1384.54081917 C-404.12531315 1386.46391749 -417.60465857 1388.38662965 -431.08404541 1390.30905151 C-432.07522967 1390.45041566 -432.07522967 1390.45041566 -433.08643785 1390.59463565 C-440.3430253 1391.62957873 -447.59962894 1392.66440818 -454.85626602 1393.69900322 C-467.62678007 1395.51982984 -480.39707658 1397.34215639 -493.16687012 1399.16802979 C-503.8480103 1400.69523137 -514.52962022 1402.21909392 -525.21185958 1403.73858887 C-530.64613644 1404.51169696 -536.08016874 1405.28643099 -541.5135994 1406.06546593 C-546.48660663 1406.77846132 -551.46023005 1407.4869802 -556.43438768 1408.19190383 C-558.23362222 1408.4476998 -560.03262185 1408.70515467 -561.83135939 1408.96442246 C-564.2718339 1409.3159445 -566.71308874 1409.661443 -569.15463257 1410.00544739 C-570.20343611 1410.15872868 -570.20343611 1410.15872868 -571.27342761 1410.31510657 C-575.54571409 1410.90892413 -579.68927083 1411.08903083 -584 1411 C-579.43573307 1377.50129081 -574.76235465 1344.0195232 -569.98882961 1310.55002189 C-569.11615549 1304.42898442 -568.24508863 1298.3077182 -567.37384033 1292.18647766 C-565.72360216 1280.59369012 -564.072174 1269.00107248 -562.42020154 1257.40853196 C-560.57985405 1244.49398503 -558.74026738 1231.57932981 -556.90101528 1218.66462684 C-556.53766456 1216.11330146 -556.17430005 1213.56197804 -555.81092167 1211.0106566 C-553.85360308 1197.2679804 -551.89729182 1183.52516205 -549.94372559 1169.7819519 C-549.68720789 1167.97748661 -549.68720789 1167.97748661 -549.42550802 1166.13656747 C-548.40749717 1158.97545488 -548.40749717 1158.97545488 -547.38964748 1151.81431937 C-545.51558628 1138.6291735 -543.63610801 1125.44483711 -541.7431066 1112.26239628 C-540.65665786 1104.69643376 -539.57420792 1097.12990824 -538.4952662 1089.56287152 C-537.77330203 1084.50165979 -537.04559717 1079.44132133 -536.3132391 1074.38160372 C-535.87713979 1071.358591 -535.44674786 1068.33478801 -535.01813984 1065.31070495 C-534.82184591 1063.93415151 -534.62314864 1062.55793827 -534.42184734 1061.18210816 C-534.1516483 1059.33337297 -533.89075881 1057.48328411 -533.63043213 1055.63313293 C-533.48331913 1054.60910275 -533.33620613 1053.58507257 -533.18463516 1052.53001118 C-532.82794133 1049.87544532 -532.82794133 1049.87544532 -534 1047 C-535.54927763 1045.55399755 -535.54927763 1045.55399755 -537.515625 1044.20703125 C-538.26134766 1043.66755859 -539.00707031 1043.12808594 -539.77539062 1042.57226562 C-540.59201172 1041.99154297 -541.40863281 1041.41082031 -542.25 1040.8125 C-543.99597965 1039.54981814 -545.74072772 1038.28543195 -547.484375 1037.01953125 C-548.39380859 1036.36033691 -549.30324219 1035.70114258 -550.24023438 1035.02197266 C-554.71036661 1031.74688108 -559.10381291 1028.37333215 -563.5 1025 C-570.11878439 1019.93260714 -576.77504949 1014.92563265 -583.5 1010 C-591.12740017 1004.4133758 -598.65644565 998.70723662 -606.1640625 992.9609375 C-611.89902853 988.57935579 -617.67763175 984.26462136 -623.5 980 C-632.17648536 973.64393818 -640.73311072 967.13779594 -649.27734375 960.60546875 C-652.83735601 957.88400925 -656.40965039 955.18127105 -660 952.5 C-664.47154772 949.16065071 -668.91017645 945.78022743 -673.34375 942.390625 C-681.7818324 935.94082638 -690.26603675 929.56609608 -698.83422852 923.2902832 C-705.67709744 918.26621604 -712.42305585 913.12047632 -719.1640625 907.9609375 C-724.89902727 903.57935674 -730.67759563 899.26457042 -736.5 895 C-744.12740017 889.4133758 -751.65644565 883.70723662 -759.1640625 877.9609375 C-764.89902727 873.57935674 -770.67759563 869.26457042 -776.5 865 C-784.11179398 859.42480642 -791.62588303 853.73092904 -799.11791992 847.99609375 C-807.99346724 841.21481397 -816.9826169 834.59100644 -826 828 C-824.88024077 824.64072231 -824.26397398 824.19085244 -821.484375 822.20703125 C-820.73865234 821.66755859 -819.99292969 821.12808594 -819.22460938 820.57226562 C-818.40798828 819.99154297 -817.59136719 819.41082031 -816.75 818.8125 C-815.00402035 817.54981814 -813.25927228 816.28543195 -811.515625 815.01953125 C-810.60619141 814.36033691 -809.69675781 813.70114258 -808.75976562 813.02197266 C-804.28963339 809.74688108 -799.89618709 806.37333215 -795.5 803 C-788.11434591 797.34548572 -780.66803429 791.78528264 -773.1640625 786.2890625 C-767.22328567 781.92722968 -761.3524674 777.47945452 -755.5 773 C-748.11358208 767.34646605 -740.66805534 761.78529806 -733.1640625 756.2890625 C-727.22328567 751.92722968 -721.3524674 747.47945452 -715.5 743 C-708.88052718 737.93348268 -702.22490542 732.92573836 -695.5 728 C-687.80551751 722.36280971 -680.20250844 716.61358203 -672.625 710.8203125 C-666.80470092 706.3710172 -660.95928117 701.958072 -655.09033203 697.57324219 C-649.59443813 693.46063099 -644.14061253 689.29409476 -638.6875 685.125 C-631.2374511 679.43234325 -623.72865572 673.82979216 -616.16479492 668.28955078 C-610.2237217 663.92762531 -604.3527001 659.47963263 -598.5 655 C-591.11649417 649.34869495 -583.67412653 643.78940173 -576.17285156 638.2956543 C-569.32108315 633.26526913 -562.55745222 628.12352954 -555.81835938 622.94335938 C-550.64674024 618.97831268 -545.42197386 615.09291643 -540.16308594 611.24487305 C-539.47197723 610.73864159 -538.78086853 610.23241013 -538.06881714 609.71083832 C-536.37949357 608.47350691 -534.68978614 607.23669962 -533 606 C-538.26298902 567.23988618 -543.7306283 528.51023221 -549.24067157 489.78466013 C-550.45038468 481.28200011 -551.65842149 472.77910214 -552.86633492 464.27618629 C-555.0190334 449.12272765 -557.17258209 433.96938999 -559.3269043 418.81616211 C-559.45453284 417.91843673 -559.58216138 417.02071135 -559.71365745 416.09578217 C-561.01479467 406.94380029 -562.31602193 397.79183121 -563.61729329 388.6398684 C-564.27343775 384.02513195 -564.92956969 379.41039371 -565.58569336 374.7956543 C-565.7152821 373.88421537 -565.84487084 372.97277645 -565.97838651 372.03371816 C-568.13566085 356.86068793 -570.29185632 341.68750458 -572.44724232 326.51420599 C-573.77099524 317.19572604 -575.09570961 307.87738374 -576.42167384 298.55921818 C-577.32471548 292.21267303 -578.22678154 285.86598974 -579.12806319 279.51919442 C-579.64789129 275.8588335 -580.16818713 272.19854058 -580.68968964 268.53841782 C-581.25351462 264.58119718 -581.81521453 260.62367664 -582.37669373 256.66612244 C-582.62633406 254.91775216 -582.62633406 254.91775216 -582.88101763 253.13406128 C-583.02997014 252.08167819 -583.17892265 251.02929511 -583.33238888 249.94502163 C-583.46225593 249.03172036 -583.59212297 248.11841908 -583.72592539 247.17744201 C-584 245 -584 245 -584 243 C-574.88475049 243.55105235 -565.89764314 244.44139977 -556.86149597 245.75028992 C-555.61664454 245.92658725 -554.37179311 246.10288458 -553.08921891 246.28452426 C-549.67628823 246.76800152 -546.26423949 247.25745867 -542.85231841 247.74800289 C-539.15422834 248.27858434 -535.45532907 248.80346923 -531.75653076 249.3290863 C-524.51973075 250.35836099 -517.28367309 251.39276596 -510.04784896 252.4288763 C-501.57944964 253.64124632 -493.11027564 254.84816233 -484.64106063 256.05481873 C-469.48582006 258.21423012 -454.33121875 260.37809442 -439.17700195 262.54467773 C-424.56605007 264.63358316 -409.95475697 266.72007682 -395.34301758 268.8034668 C-394.4468956 268.93123946 -393.55077363 269.05901212 -392.62749644 269.19065668 C-389.02227286 269.70469648 -385.41704785 270.21872624 -381.8118207 270.73274098 C-366.08404195 272.97517624 -350.35651359 275.21936691 -334.62905481 277.46404508 C-332.95025313 277.70364862 -331.27145046 277.94324532 -329.59264681 278.18283507 C-255.24521286 288.79337083 -255.24521286 288.79337083 -220 294 C-219.69595245 293.37846542 -219.39190491 292.75693085 -219.0786438 292.11656189 C-217.98113595 289.96298414 -216.74073616 288.1337072 -215.3046875 286.19140625 C-214.49064453 285.08732422 -214.49064453 285.08732422 -213.66015625 283.9609375 C-213.07105469 283.16945313 -212.48195313 282.37796875 -211.875 281.5625 C-211.25753906 280.72847656 -210.64007812 279.89445312 -210.00390625 279.03515625 C-204.72136103 271.92118754 -199.34941831 264.87657862 -193.96435547 257.84008789 C-189.58134751 252.10395425 -185.26562959 246.32385044 -181 240.5 C-175.4133758 232.87259983 -169.70723662 225.34355435 -163.9609375 217.8359375 C-159.57935579 212.10097147 -155.26462136 206.32236825 -151 200.5 C-144.64393818 191.82351464 -138.13779594 183.26688928 -131.60546875 174.72265625 C-128.88400925 171.16264399 -126.18127105 167.59034961 -123.5 164 C-120.16065071 159.52845228 -116.78022743 155.08982355 -113.390625 150.65625 C-106.94082638 142.2181676 -100.56609608 133.73396325 -94.2902832 125.16577148 C-89.26621604 118.32290256 -84.12047632 111.57694415 -78.9609375 104.8359375 C-74.57935674 99.10097273 -70.26457042 93.32240437 -66 87.5 C-60.4133758 79.87259983 -54.70723662 72.34355435 -48.9609375 64.8359375 C-44.57935535 59.1009709 -40.2646493 53.32234807 -36 47.5 C-30.3736402 39.82030059 -24.63657128 32.23102359 -18.85327148 24.66894531 C-14.04288986 18.3778561 -9.27358375 12.0577147 -4.54052734 5.70825195 C-1.10002972 1.10002972 -1.10002972 1.10002972 0 0 Z " fill="#837193" transform="translate(833,7)"/>
<path d="M0 0 C2.82749964 1.33441371 5.29610568 2.83769351 7.80859375 4.6953125 C8.91243408 5.50911377 8.91243408 5.50911377 10.03857422 6.33935547 C10.83021973 6.92861816 11.62186523 7.51788086 12.4375 8.125 C13.27297363 8.74391113 14.10844727 9.36282227 14.96923828 10.00048828 C25.61456615 17.90884164 36.13633729 25.97983331 46.66601562 34.04101562 C56.65886744 41.68778338 66.68532096 49.27576802 76.83642578 56.71142578 C83.67867921 61.73476241 90.42379463 66.88008914 97.1640625 72.0390625 C102.89902727 76.42064326 108.67759563 80.73542958 114.5 85 C122.12740017 90.5866242 129.65644565 96.29276338 137.1640625 102.0390625 C142.89902727 106.42064326 148.67759563 110.73542958 154.5 115 C162.12740017 120.5866242 169.65644565 126.29276338 177.1640625 132.0390625 C182.89902727 136.42064326 188.67759563 140.73542958 194.5 145 C202.12526593 150.585061 209.65283255 156.28881088 217.1574707 162.03466797 C222.95380929 166.46423345 228.79953926 170.81815557 234.6875 175.125 C240.8725675 179.65115866 246.96889925 184.27067983 253 189 C261.3833385 195.57067523 269.92678746 201.90325681 278.52539062 208.18847656 C282.9209361 211.40621013 287.30331596 214.64181377 291.6875 217.875 C293.29551817 219.05997014 294.9035858 220.24487315 296.51171875 221.4296875 C297.67447917 222.28645833 298.83723958 223.14322917 300 224 C303.58592537 222.47800665 305.8793792 220.36744251 308.61907959 217.62142944 C309.54172104 216.70153732 310.46436249 215.7816452 311.41496277 214.83387756 C312.43005519 213.81170737 313.44505136 212.78944158 314.45996094 211.76708984 C315.53399927 210.69248727 316.60847838 209.6183251 317.68336487 208.54457092 C320.5986874 205.6298224 323.50780072 202.70894689 326.41584682 199.78694105 C329.45653627 196.73375233 332.50288731 193.68622334 335.54864502 190.63809204 C341.31470672 184.86581322 347.07565104 179.08845491 352.83477902 173.30925906 C359.39186433 166.72982199 365.95462699 160.15606047 372.51787519 153.58277202 C386.01824844 140.06149151 399.51146743 126.53309201 413 113 C418.28005073 117.41227759 423.20075115 122.06082824 428.05491638 126.93466187 C428.8367723 127.71566336 429.61862823 128.49666486 430.42417675 129.30133307 C433.03052513 131.90604079 435.6332949 134.51429457 438.23608398 137.12255859 C440.10879939 138.9955562 441.98171228 140.86835436 443.85487366 142.74090576 C447.88066384 146.76617298 451.90462697 150.7932591 455.92733574 154.82160568 C461.74341612 160.64583194 467.56227373 166.46727706 473.38180102 172.28805895 C482.82477072 181.73321433 492.26550763 191.18059816 501.70483398 200.62939453 C510.87130174 209.80504895 520.03882489 218.9796468 529.20776367 228.15283203 C529.77345377 228.71878485 530.33914386 229.28473767 530.92197608 229.86784057 C533.76003795 232.70720753 536.59812052 235.54655379 539.43621337 238.38588977 C562.96068567 261.92071958 586.48153151 285.45917053 610 309 C606.57425502 313.0693789 603.10624835 317.01714095 599.32350159 320.7631073 C598.43873642 321.64202133 597.55397125 322.52093536 596.64239502 323.42648315 C595.68032653 324.37704318 594.71822838 325.3275732 593.75610352 326.27807617 C592.72872111 327.29697668 591.70160334 328.31614409 590.67472839 329.33555603 C588.47595463 331.51770366 586.27580022 333.69844624 584.07467842 335.87822533 C580.5960647 339.32407603 577.12352956 342.77600846 573.65232849 346.22932434 C572.46152975 347.4138632 571.27073099 348.59840204 570.07993221 349.78294086 C569.18609209 350.67210679 569.18609209 350.67210679 568.2741946 351.57923567 C560.20007592 359.61038862 552.12140608 367.63688103 544.02856445 375.64916992 C538.55688663 381.06647893 533.09405756 386.49253942 527.64131683 391.92891103 C524.75790699 394.80293136 521.87004821 397.6721508 518.97125435 400.53066063 C516.25108628 403.21312474 513.54263222 405.9068648 510.84288216 408.60987282 C509.84866422 409.60110906 508.85012546 410.5880324 507.84708786 411.57034302 C506.48250673 412.90795545 505.13454428 414.26246008 503.78761292 415.61784363 C503.02755227 416.37199649 502.26749163 417.12614935 501.48439884 417.90315533 C499.75735409 419.86592946 499.75735409 419.86592946 500.17826748 422.14386463 C501.2144196 424.48433255 502.52935867 426.2971599 504.10546875 428.31640625 C505.07516602 429.57130859 505.07516602 429.57130859 506.06445312 430.8515625 C506.76505859 431.74617188 507.46566406 432.64078125 508.1875 433.5625 C509.66145775 435.4690466 511.13408962 437.3766189 512.60546875 439.28515625 C513.71801025 440.72592529 513.71801025 440.72592529 514.85302734 442.19580078 C517.96065782 446.25473229 520.98464007 450.37231313 524 454.5 C528.92471745 461.22563629 533.93350094 467.88055103 539 474.5 C544.65353395 481.88641792 550.21470194 489.33194466 555.7109375 496.8359375 C560.07277032 502.77671433 564.52054548 508.6475326 569 514.5 C574.65353395 521.88641792 580.21470194 529.33194466 585.7109375 536.8359375 C590.07277032 542.77671433 594.52054548 548.6475326 599 554.5 C604.0665168 561.11947215 609.07429391 567.77507127 614 574.5 C620.35606182 583.17648536 626.86220406 591.73311072 633.39453125 600.27734375 C636.80992569 604.74511044 640.18581296 609.24024098 643.55078125 613.74609375 C646.21339893 617.29663504 648.91392082 620.81811695 651.609375 624.34375 C658.05917362 632.7818324 664.43390392 641.26603675 670.7097168 649.83422852 C675.07190855 655.77561134 679.52011973 661.64697635 684 667.5 C689.64461801 674.87476913 695.19830092 682.30765042 700.68457031 689.80078125 C705.98078618 697.01600378 711.40239324 704.13314984 716.84765625 711.23632812 C717.49089844 712.07615234 718.13414063 712.91597656 718.796875 713.78125 C719.36760742 714.52439453 719.93833984 715.26753906 720.52636719 716.03320312 C724.03148673 720.71134147 724.03148673 720.71134147 723.78735352 722.94946289 C722.91682888 725.21660597 721.85625854 726.86360708 720.40234375 728.80859375 C719.5834668 729.91267578 719.5834668 729.91267578 718.74804688 731.0390625 C718.15056641 731.83054687 717.55308594 732.62203125 716.9375 733.4375 C716.31552734 734.27152344 715.69355469 735.10554688 715.05273438 735.96484375 C709.74096652 743.06834225 704.35480926 750.11585139 698.96459961 757.15991211 C694.58122654 762.89583266 690.26565883 768.67610964 686 774.5 C680.41554142 782.12444345 674.71184368 789.65074933 668.9675293 797.15527344 C663.93327882 803.74419204 658.99578643 810.39851008 654.10009766 817.09082031 C649.58924044 823.24281482 644.96927114 829.30528405 640.26098633 835.30761719 C637.53751516 838.81866667 635.22399399 842.29823687 633.07763672 846.20410156 C630.92556889 849.79055624 628.23060888 852.98701937 625.625 856.25 C620.67776594 862.52509398 615.83921791 868.86050521 611.125 875.3125 C605.44901552 883.07165741 599.65981086 890.73719771 593.82080078 898.37426758 C589.85408273 903.56347261 585.90935642 908.76745621 582 914 C577.41585262 920.1357291 572.77683829 926.22796626 568.125 932.3125 C562.43234325 939.7625489 556.82979216 947.27134428 551.28955078 954.83520508 C546.26575384 961.67776708 541.12022854 968.42337957 535.9609375 975.1640625 C531.57935674 980.89902727 527.26457042 986.67759563 523 992.5 C517.4133758 1000.12740017 511.70723662 1007.65644565 505.9609375 1015.1640625 C501.57935674 1020.89902727 497.26457042 1026.67759563 493 1032.5 C487.4133758 1040.12740017 481.70723662 1047.65644565 475.9609375 1055.1640625 C471.57935674 1060.89902727 467.26457042 1066.67759563 463 1072.5 C457.41710472 1080.12230908 451.71579995 1087.64713931 445.97192383 1095.14868164 C441.47678181 1101.03054746 437.06011873 1106.96412573 432.6875 1112.9375 C428.43421891 1118.73364977 424.15235694 1124.50341632 419.75 1130.1875 C419.29584717 1130.78232178 418.84169434 1131.37714355 418.3737793 1131.98999023 C417.29713522 1133.36557507 416.15467574 1134.68922921 415 1136 C414.34 1136 413.68 1136 413 1136 C411.74169922 1134.58911133 411.74169922 1134.58911133 410.3046875 1132.58203125 C409.76199219 1131.83308594 409.21929688 1131.08414062 408.66015625 1130.3125 C407.77650391 1129.075 407.77650391 1129.075 406.875 1127.8125 C405.60317002 1126.05742772 404.3296709 1124.30356404 403.0546875 1122.55078125 C402.38920898 1121.63506348 401.72373047 1120.7193457 401.03808594 1119.77587891 C397.75408886 1115.30306545 394.37732764 1110.90251451 391 1106.5 C385.34558517 1099.11426818 379.78528427 1091.66803651 374.2890625 1084.1640625 C369.92722968 1078.22328567 365.47945452 1072.3524674 361 1066.5 C355.34646605 1059.11358208 349.78529806 1051.66805534 344.2890625 1044.1640625 C339.92722968 1038.22328567 335.47945452 1032.3524674 331 1026.5 C325.93347997 1019.88052364 320.92589389 1013.2247938 316 1006.5 C308.47103085 996.22776853 300.74169652 986.11235957 293 976 C284.67074178 965.12015553 276.38565254 954.21764548 268.28857422 943.16357422 C263.9270887 937.22282379 259.47931546 931.35228572 255 925.5 C249.34646605 918.11358208 243.78529806 910.66805534 238.2890625 903.1640625 C233.92722899 897.22328473 229.47941731 891.35249694 225 885.5 C220.40295788 879.49317611 215.83633629 873.46800167 211.35522461 867.37402344 C210.1753074 865.77037727 208.99005186 864.17064298 207.79907227 862.57519531 C205.25698209 859.15746786 202.80128309 855.75304691 200.5859375 852.11328125 C198.5618427 848.94465284 196.79691544 846.5010793 194 844 C191.44893334 843.52508341 191.44893334 843.52508341 188.62808228 844.0091095 C186.89062178 844.21272315 186.89062178 844.21272315 185.11806107 844.42045021 C183.74517716 844.61222928 182.37250407 844.80552121 181 845 C179.39038948 845.21096364 177.78064338 845.42089456 176.17078781 845.62998009 C170.27859343 846.41106352 164.39631736 847.25806692 158.51318359 848.10424805 C156.24833205 848.42686317 153.98342776 848.7491082 151.71847534 849.0710144 C145.56763205 849.94625505 139.41753266 850.82662552 133.26754713 851.70787024 C127.387116 852.54963187 121.50611635 853.38739933 115.6251206 854.22520492 C103.86794615 855.90025065 92.1112945 857.57893658 80.35498047 859.26000977 C64.42058036 861.53850691 48.48560947 863.81298924 32.55044335 866.08612236 C29.1516149 866.57097641 25.75279651 867.055901 22.3539772 867.54081917 C8.87468685 869.46391749 -4.60465857 871.38662965 -18.08404541 873.30905151 C-18.74483492 873.40329428 -19.40562442 873.49753704 -20.08643785 873.59463565 C-27.3430253 874.62957873 -34.59962894 875.66440818 -41.85626602 876.69900322 C-54.62678007 878.51982984 -67.39707658 880.34215639 -80.16687012 882.16802979 C-90.8480103 883.69523137 -101.52962022 885.21909392 -112.21185958 886.73858887 C-117.64613644 887.51169696 -123.08016874 888.28643099 -128.5135994 889.06546593 C-133.48660663 889.77846132 -138.46023005 890.4869802 -143.43438768 891.19190383 C-145.23362222 891.4476998 -147.03262185 891.70515467 -148.83135939 891.96442246 C-151.2718339 892.3159445 -153.71308874 892.661443 -156.15463257 893.00544739 C-157.20343611 893.15872868 -157.20343611 893.15872868 -158.27342761 893.31510657 C-162.54571409 893.90892413 -166.68927083 894.08903083 -171 894 C-166.43573307 860.50129081 -161.76235465 827.0195232 -156.98882961 793.55002189 C-156.11615549 787.42898442 -155.24508863 781.3077182 -154.37384033 775.18647766 C-152.72360216 763.59369012 -151.072174 752.00107248 -149.42020154 740.40853196 C-147.57985405 727.49398503 -145.74026738 714.57932981 -143.90101528 701.66462684 C-143.53766456 699.11330146 -143.17430005 696.56197804 -142.81092167 694.0106566 C-140.85360308 680.2679804 -138.89729182 666.52516205 -136.94372559 652.7819519 C-136.68720789 650.97748661 -136.68720789 650.97748661 -136.42550802 649.13656747 C-135.40749717 641.97545488 -135.40749717 641.97545488 -134.38964748 634.81431937 C-132.51558628 621.6291735 -130.63610801 608.44483711 -128.7431066 595.26239628 C-127.65665786 587.69643376 -126.57420792 580.12990824 -125.4952662 572.56287152 C-124.77330203 567.50165979 -124.04559717 562.44132133 -123.3132391 557.38160372 C-122.87713979 554.358591 -122.44674786 551.33478801 -122.01813984 548.31070495 C-121.82184591 546.93415151 -121.62314864 545.55793827 -121.42184734 544.18210816 C-121.1516483 542.33337297 -120.89075881 540.48328411 -120.63043213 538.63313293 C-120.48331913 537.60910275 -120.33620613 536.58507257 -120.18463516 535.53001118 C-119.82794133 532.87544532 -119.82794133 532.87544532 -121 530 C-122.54927763 528.55399755 -122.54927763 528.55399755 -124.515625 527.20703125 C-125.26134766 526.66755859 -126.00707031 526.12808594 -126.77539062 525.57226562 C-127.59201172 524.99154297 -128.40863281 524.41082031 -129.25 523.8125 C-130.99597965 522.54981814 -132.74072772 521.28543195 -134.484375 520.01953125 C-135.84852539 519.03073975 -135.84852539 519.03073975 -137.24023438 518.02197266 C-141.71036661 514.74688108 -146.10381291 511.37333215 -150.5 508 C-157.11878439 502.93260714 -163.77504949 497.92563265 -170.5 493 C-178.12740017 487.4133758 -185.65644565 481.70723662 -193.1640625 475.9609375 C-198.89902853 471.57935579 -204.67763175 467.26462136 -210.5 463 C-219.17648536 456.64393818 -227.73311072 450.13779594 -236.27734375 443.60546875 C-239.83735601 440.88400925 -243.40965039 438.18127105 -247 435.5 C-251.47154772 432.16065071 -255.91017645 428.78022743 -260.34375 425.390625 C-268.7818324 418.94082638 -277.26603675 412.56609608 -285.83422852 406.2902832 C-292.67709744 401.26621604 -299.42305585 396.12047632 -306.1640625 390.9609375 C-311.89902727 386.57935674 -317.67759563 382.26457042 -323.5 378 C-331.12740017 372.4133758 -338.65644565 366.70723662 -346.1640625 360.9609375 C-351.89902727 356.57935674 -357.67759563 352.26457042 -363.5 348 C-371.11179398 342.42480642 -378.62588303 336.73092904 -386.11791992 330.99609375 C-394.99346724 324.21481397 -403.9826169 317.59100644 -413 311 C-411.88024077 307.64072231 -411.26397398 307.19085244 -408.484375 305.20703125 C-407.73865234 304.66755859 -406.99292969 304.12808594 -406.22460938 303.57226562 C-405.40798828 302.99154297 -404.59136719 302.41082031 -403.75 301.8125 C-402.00402035 300.54981814 -400.25927228 299.28543195 -398.515625 298.01953125 C-397.60619141 297.36033691 -396.69675781 296.70114258 -395.75976562 296.02197266 C-391.28963339 292.74688108 -386.89618709 289.37333215 -382.5 286 C-375.11434591 280.34548572 -367.66803429 274.78528264 -360.1640625 269.2890625 C-354.22328567 264.92722968 -348.3524674 260.47945452 -342.5 256 C-335.11358208 250.34646605 -327.66805534 244.78529806 -320.1640625 239.2890625 C-314.22328567 234.92722968 -308.3524674 230.47945452 -302.5 226 C-295.88052718 220.93348268 -289.22490542 215.92573836 -282.5 211 C-274.80551751 205.36280971 -267.20250844 199.61358203 -259.625 193.8203125 C-253.80470092 189.3710172 -247.95928117 184.958072 -242.09033203 180.57324219 C-236.59443813 176.46063099 -231.14061253 172.29409476 -225.6875 168.125 C-218.2374511 162.43234325 -210.72865572 156.82979216 -203.16479492 151.28955078 C-197.2237217 146.92762531 -191.3527001 142.47963263 -185.5 138 C-178.11649417 132.34869495 -170.67412653 126.78940173 -163.17285156 121.2956543 C-157.14507259 116.87022015 -151.18900431 112.35620252 -145.25 107.8125 C-139.0328723 103.05893072 -132.80411441 98.3253461 -126.5 93.6875 C-125.90735352 93.24962158 -125.31470703 92.81174316 -124.70410156 92.3605957 C-122.38189032 90.66163993 -120.06409479 89.03790189 -117.58642578 87.57275391 C-115.11847292 86.07204102 -112.87110199 84.46297172 -110.5859375 82.69921875 C-109.75255859 82.05919922 -108.91917969 81.41917969 -108.06054688 80.75976562 C-107.17431641 80.07591797 -106.28808594 79.39207031 -105.375 78.6875 C-98.4666354 73.38773589 -91.52680383 68.14172714 -84.5 63 C-77.77478256 58.07469684 -71.11946282 53.06650967 -64.5 48 C-57.11731654 42.34932439 -49.67640427 36.78976064 -42.17504883 31.29785156 C-36.12220533 26.85518931 -30.14749758 22.31624377 -24.1875 17.75 C-16.24045986 11.66284327 -8.20393716 5.73586195 0 0 Z " fill="#7DA584" transform="translate(420,524)"/>
<path d="M0 0 C3.79250106 3.66219813 7.16164024 7.4975053 10.4375 11.625 C11.2123877 12.59735596 11.2123877 12.59735596 12.00292969 13.58935547 C16.64704703 19.46459417 21.08789951 25.48150215 25.50561523 31.52783203 C29.93008251 37.57627237 34.44342006 43.55058382 39 49.5 C44.65378534 56.8862222 50.21470585 64.33195 55.7109375 71.8359375 C60.07277032 77.77671433 64.52054548 83.6475326 69 89.5 C74.65353395 96.88641792 80.21470194 104.33194466 85.7109375 111.8359375 C90.07277032 117.77671433 94.52054548 123.6475326 99 129.5 C104.65353395 136.88641792 110.21470194 144.33194466 115.7109375 151.8359375 C120.07277032 157.77671433 124.52054548 163.6475326 129 169.5 C134.06651784 176.1194735 139.07422941 182.77511787 144 189.5 C149.5683038 197.09977847 155.24580174 204.60989458 160.96875 212.09375 C166.13874634 218.85757951 171.25468981 225.66009244 176.35302734 232.47802734 C180.88693851 238.53394383 185.4670712 244.55317814 190.0625 250.5625 C195.82903316 258.10582435 201.50373353 265.71001318 207.11108398 273.37231445 C211.27233784 279.04861424 215.54478571 284.62310824 219.9140625 290.140625 C221.79520459 292.71926922 223.32209076 295.34867622 224.86962891 298.13378906 C227.0528501 301.73822596 229.74940498 304.96199091 232.375 308.25 C237.32223128 314.52509045 242.16086799 320.86044537 246.875 327.3125 C251.84029218 334.10180563 256.88665692 340.82148555 262 347.5 C267.65143066 354.88340803 273.21060023 362.32587615 278.7043457 369.82714844 C283.78788174 376.7513124 288.99460183 383.57777721 294.21484375 390.39916992 C299.91419616 397.85783276 305.49014197 405.40059836 311 413 C306.78063546 419.52351473 302.24808651 425.72850445 297.5 431.875 C292.26213585 438.69965725 287.08057142 445.55743138 282 452.5 C276.41372922 460.12765373 270.70723044 467.65645371 264.9609375 475.1640625 C260.57935674 480.89902727 256.26457042 486.67759563 252 492.5 C246.4133758 500.12740017 240.70723662 507.65644565 234.9609375 515.1640625 C230.57935535 520.8990291 226.2646493 526.67765193 222 532.5 C216.36280971 540.19448249 210.61358203 547.79749156 204.8203125 555.375 C200.85368303 560.56390483 196.90918123 565.7676907 193 571 C188.41585262 577.1357291 183.77683829 583.22796626 179.125 589.3125 C173.43234325 596.7625489 167.82979216 604.27134428 162.28955078 611.83520508 C157.26575384 618.67776708 152.12022854 625.42337957 146.9609375 632.1640625 C142.57935674 637.89902727 138.26457042 643.67759563 134 649.5 C129.07435006 656.22497411 124.0663611 662.88040804 119 669.5 C111.54437037 679.24518195 104.24688112 689.09902702 97 699 C95.89475897 700.50667749 94.78929421 702.01319089 93.68359375 703.51953125 C91.12057488 707.01168938 88.55961294 710.50534479 86 714 C82.92321319 712.62792243 80.81719358 711.06507306 78.44390869 708.68441772 C77.41334099 707.65797401 77.41334099 707.65797401 76.36195374 706.61079407 C75.61892502 705.8605748 74.8758963 705.11035553 74.11035156 704.33740234 C73.31972824 703.54707108 72.52910492 702.75673981 71.71452332 701.94245911 C69.10178891 699.32833109 66.49621046 696.70718956 63.890625 694.0859375 C62.08073808 692.27232057 60.27040917 690.45914463 58.45965576 688.64639282 C54.18137929 684.36125966 49.90758699 680.07170349 45.63593364 675.77997172 C40.77168982 670.89336221 35.90175614 666.0124401 31.03133821 661.13198543 C21.01455201 651.09430211 11.00492579 641.04950407 1 631 C-5.16415313 636.09728873 -10.79193521 641.6566778 -16.43334961 647.31982422 C-17.4686367 648.35539385 -18.50414496 649.3907424 -19.53985596 650.42588806 C-22.33291752 653.21866428 -25.12289844 656.0144994 -27.91231227 658.81091833 C-30.83464239 661.73952579 -33.75982974 664.66527659 -36.68470764 667.59133911 C-42.21491743 673.12464934 -47.74257448 678.66050236 -53.26930577 684.19728673 C-59.56482362 690.50400577 -65.86320208 696.80786471 -72.16181552 703.11149192 C-85.11104948 716.07116111 -98.05670923 729.03439527 -111 742 C-114.59407967 740.61903638 -117.37053858 739.16770449 -120.4140625 736.796875 C-121.24768311 736.15347168 -122.08130371 735.51006836 -122.94018555 734.84716797 C-123.82617432 734.15510254 -124.71216309 733.46303711 -125.625 732.75 C-127.51850919 731.28773806 -129.41306165 729.82682618 -131.30859375 728.3671875 C-132.26233887 727.63209961 -133.21608398 726.89701172 -134.19873047 726.13964844 C-138.31896612 722.99255542 -142.49972597 719.93129743 -146.6875 716.875 C-153.63904543 711.78920614 -160.46034822 706.56000621 -167.23779297 701.24511719 C-173.30043232 696.50641149 -179.47328137 691.93325877 -185.68359375 687.390625 C-191.67751178 682.99768833 -197.59959344 678.51759194 -203.5 674 C-210.11938274 668.9333719 -216.77503207 663.92564541 -223.5 659 C-231.12740017 653.4133758 -238.65644565 647.70723662 -246.1640625 641.9609375 C-251.89902727 637.57935674 -257.67759563 633.26457042 -263.5 629 C-271.12740017 623.4133758 -278.65644565 617.70723662 -286.1640625 611.9609375 C-291.89902727 607.57935674 -297.67759563 603.26457042 -303.5 599 C-311.12444345 593.41554142 -318.65074933 587.71184368 -326.15527344 581.9675293 C-331.97577263 577.52038819 -337.8417763 573.14229229 -343.75 568.8125 C-351.82322771 562.89346276 -359.79023257 556.84745659 -367.7265625 550.74658203 C-378.96890228 542.10958689 -390.24049888 533.51157489 -401.625 525.0625 C-402.42470215 524.4651001 -403.2244043 523.8677002 -404.04833984 523.25219727 C-404.78777832 522.70619873 -405.5272168 522.1602002 -406.2890625 521.59765625 C-406.93568848 521.11820557 -407.58231445 520.63875488 -408.24853516 520.14477539 C-410.11033181 518.82192636 -410.11033181 518.82192636 -413 518 C-414.85171651 518.90887021 -414.85171651 518.90887021 -416.7109375 520.40234375 C-417.45021484 520.95470703 -418.18949219 521.50707031 -418.95117188 522.07617188 C-420.1509668 522.9975293 -420.1509668 522.9975293 -421.375 523.9375 C-422.21353516 524.56849609 -423.05207031 525.19949219 -423.91601562 525.84960938 C-426.61932944 527.88860033 -429.31057674 529.94273083 -432 532 C-433.7524167 533.33488156 -435.50501904 534.66951944 -437.2578125 536.00390625 C-439.89348858 538.01200529 -442.52806736 540.02147434 -445.15966797 542.03491211 C-451.6625246 547.00511497 -458.23310243 551.87474726 -464.8359375 556.7109375 C-471.67524077 561.73248575 -478.41789671 566.87536687 -485.15527344 572.0324707 C-491.74127862 577.06449518 -498.39245567 582.00008771 -505.08203125 586.89331055 C-511.35521403 591.49271582 -517.53398979 596.20794452 -523.65917969 601.00268555 C-524.31821289 601.51355713 -524.97724609 602.02442871 -525.65625 602.55078125 C-526.23181641 603.00106689 -526.80738281 603.45135254 -527.40039062 603.9152832 C-529 605 -529 605 -532 606 C-533.47701641 599.68095162 -534.61351912 593.40360507 -535.51300049 586.97903442 C-535.72125871 585.52256809 -535.72125871 585.52256809 -535.93372416 584.03667819 C-536.39568668 580.79982126 -536.85262507 577.56227576 -537.30957031 574.32470703 C-537.64152364 571.9913867 -537.97378698 569.65811046 -538.30633545 567.32487488 C-539.21113144 560.97023791 -540.11154776 554.61498714 -541.01119328 548.25961924 C-541.87045249 542.19191419 -542.73365242 536.12476918 -543.59645018 530.05756651 C-545.32132308 517.92744502 -547.04299241 505.79687106 -548.76269531 493.66601562 C-550.39766881 482.13288973 -552.03415847 470.59998082 -553.67285156 459.06738281 C-553.77206337 458.36915312 -553.87127517 457.67092342 -553.9734934 456.95153525 C-554.37337504 454.13729941 -554.77326826 451.32306521 -555.17317596 448.50883307 C-559.56700669 417.58848879 -563.95281477 386.66701082 -568.33513975 355.74503398 C-569.61808915 346.69299202 -570.90194323 337.64107871 -572.1862793 328.5892334 C-573.71457816 317.81794251 -575.2419496 307.04652072 -576.76794791 296.27490366 C-577.54152285 290.81453615 -578.31550925 285.35422784 -579.09061432 279.8940773 C-579.79802281 274.91059434 -580.50414313 269.92693068 -581.20919514 264.9431138 C-581.46488626 263.13732085 -581.72105281 261.33159514 -581.97772503 259.52594137 C-582.32388934 257.09021655 -582.66836756 254.6542593 -583.01239014 252.2182312 C-583.16464235 251.15128452 -583.16464235 251.15128452 -583.31997037 250.06278336 C-584 245.22833387 -584 245.22833387 -584 243 C-574.88475049 243.55105235 -565.89764314 244.44139977 -556.86149597 245.75028992 C-555.61664454 245.92658725 -554.37179311 246.10288458 -553.08921891 246.28452426 C-549.67628823 246.76800152 -546.26423949 247.25745867 -542.85231841 247.74800289 C-539.15422834 248.27858434 -535.45532907 248.80346923 -531.75653076 249.3290863 C-524.51973075 250.35836099 -517.28367309 251.39276596 -510.04784896 252.4288763 C-501.57944964 253.64124632 -493.11027564 254.84816233 -484.64106063 256.05481873 C-469.48582006 258.21423012 -454.33121875 260.37809442 -439.17700195 262.54467773 C-424.56605007 264.63358316 -409.95475697 266.72007682 -395.34301758 268.8034668 C-394.4468956 268.93123946 -393.55077363 269.05901212 -392.62749644 269.19065668 C-389.02227286 269.70469648 -385.41704785 270.21872624 -381.8118207 270.73274098 C-366.08404195 272.97517624 -350.35651359 275.21936691 -334.62905481 277.46404508 C-332.95025313 277.70364862 -331.27145046 277.94324532 -329.59264681 278.18283507 C-255.24521286 288.79337083 -255.24521286 288.79337083 -220 294 C-219.69595245 293.37846542 -219.39190491 292.75693085 -219.0786438 292.11656189 C-217.98113595 289.96298414 -216.74073616 288.1337072 -215.3046875 286.19140625 C-214.76199219 285.45535156 -214.21929688 284.71929687 -213.66015625 283.9609375 C-213.07105469 283.16945313 -212.48195313 282.37796875 -211.875 281.5625 C-211.25753906 280.72847656 -210.64007812 279.89445312 -210.00390625 279.03515625 C-204.72136103 271.92118754 -199.34941831 264.87657862 -193.96435547 257.84008789 C-189.58134751 252.10395425 -185.26562959 246.32385044 -181 240.5 C-175.4133758 232.87259983 -169.70723662 225.34355435 -163.9609375 217.8359375 C-159.57935579 212.10097147 -155.26462136 206.32236825 -151 200.5 C-144.64393818 191.82351464 -138.13779594 183.26688928 -131.60546875 174.72265625 C-128.88400925 171.16264399 -126.18127105 167.59034961 -123.5 164 C-120.16065071 159.52845228 -116.78022743 155.08982355 -113.390625 150.65625 C-106.94082638 142.2181676 -100.56609608 133.73396325 -94.2902832 125.16577148 C-89.26621604 118.32290256 -84.12047632 111.57694415 -78.9609375 104.8359375 C-74.57935674 99.10097273 -70.26457042 93.32240437 -66 87.5 C-60.4133758 79.87259983 -54.70723662 72.34355435 -48.9609375 64.8359375 C-44.57935535 59.1009709 -40.2646493 53.32234807 -36 47.5 C-30.3736402 39.82030059 -24.63657128 32.23102359 -18.85327148 24.66894531 C-14.04288986 18.3778561 -9.27358375 12.0577147 -4.54052734 5.70825195 C-1.10002972 1.10002972 -1.10002972 1.10002972 0 0 Z " fill="#A0EEAA" transform="translate(833,7)"/>
<path d="M0 0 C5.28005073 4.41227759 10.20075115 9.06082824 15.05491638 13.93466187 C15.8367723 14.71566336 16.61862823 15.49666486 17.42417675 16.30133307 C20.03052513 18.90604079 22.6332949 21.51429457 25.23608398 24.12255859 C27.10879939 25.9955562 28.98171228 27.86835436 30.85487366 29.74090576 C34.88066384 33.76617298 38.90462697 37.7932591 42.92733574 41.82160568 C48.74341612 47.64583194 54.56227373 53.46727706 60.38180102 59.28805895 C69.82477072 68.73321433 79.26550763 78.18059816 88.70483398 87.62939453 C97.87130174 96.80504895 107.03882489 105.9796468 116.20776367 115.15283203 C117.05629881 116.00176126 117.05629881 116.00176126 117.92197608 116.86784057 C120.76003795 119.70720753 123.59812052 122.54655379 126.43621337 125.38588977 C149.96068567 148.92071958 173.48153151 172.45917053 197 196 C193.57425502 200.0693789 190.10624835 204.01714095 186.32350159 207.7631073 C185.43873642 208.64202133 184.55397125 209.52093536 183.64239502 210.42648315 C182.68032653 211.37704318 181.71822838 212.3275732 180.75610352 213.27807617 C179.72872111 214.29697668 178.70160334 215.31614409 177.67472839 216.33555603 C175.47595463 218.51770366 173.27580022 220.69844624 171.07467842 222.87822533 C167.5960647 226.32407603 164.12352956 229.77600846 160.65232849 233.22932434 C159.46152975 234.4138632 158.27073099 235.59840204 157.07993221 236.78294086 C156.18609209 237.67210679 156.18609209 237.67210679 155.2741946 238.57923567 C147.20007592 246.61038862 139.12140608 254.63688103 131.02856445 262.64916992 C125.55688663 268.06647893 120.09405756 273.49253942 114.64131683 278.92891103 C111.75790699 281.80293136 108.87004821 284.6721508 105.97125435 287.53066063 C103.25108628 290.21312474 100.54263222 292.9068648 97.84288216 295.60987282 C96.84866422 296.60110906 95.85012546 297.5880324 94.84708786 298.57034302 C93.48250673 299.90795545 92.13454428 301.26246008 90.78761292 302.61784363 C90.02755227 303.37199649 89.26749163 304.12614935 88.48439884 304.90315533 C86.75735409 306.86592946 86.75735409 306.86592946 87.17826748 309.14386463 C88.2144196 311.48433255 89.52935867 313.2971599 91.10546875 315.31640625 C91.75193359 316.15300781 92.39839844 316.98960937 93.06445312 317.8515625 C93.76505859 318.74617188 94.46566406 319.64078125 95.1875 320.5625 C96.66145775 322.4690466 98.13408962 324.3766189 99.60546875 326.28515625 C100.71801025 327.72592529 100.71801025 327.72592529 101.85302734 329.19580078 C104.96065782 333.25473229 107.98464007 337.37231313 111 341.5 C115.92471745 348.22563629 120.93350094 354.88055103 126 361.5 C131.65353395 368.88641792 137.21470194 376.33194466 142.7109375 383.8359375 C147.07277032 389.77671433 151.52054548 395.6475326 156 401.5 C161.65353395 408.88641792 167.21470194 416.33194466 172.7109375 423.8359375 C177.07277032 429.77671433 181.52054548 435.6475326 186 441.5 C191.0665168 448.11947215 196.07429391 454.77507127 201 461.5 C207.35606182 470.17648536 213.86220406 478.73311072 220.39453125 487.27734375 C223.80992569 491.74511044 227.18581296 496.24024098 230.55078125 500.74609375 C233.21339893 504.29663504 235.91392082 507.81811695 238.609375 511.34375 C245.05917362 519.7818324 251.43390392 528.26603675 257.7097168 536.83422852 C262.07190855 542.77561134 266.52011973 548.64697635 271 554.5 C276.64461801 561.87476913 282.19830092 569.30765042 287.68457031 576.80078125 C292.98078618 584.01600378 298.40239324 591.13314984 303.84765625 598.23632812 C304.49089844 599.07615234 305.13414062 599.91597656 305.796875 600.78125 C306.36760742 601.52439453 306.93833984 602.26753906 307.52636719 603.03320312 C311.03148673 607.71134147 311.03148673 607.71134147 310.78735352 609.94946289 C309.91682888 612.21660597 308.85625854 613.86360708 307.40234375 615.80859375 C306.5834668 616.91267578 306.5834668 616.91267578 305.74804688 618.0390625 C305.15056641 618.83054687 304.55308594 619.62203125 303.9375 620.4375 C303.31552734 621.27152344 302.69355469 622.10554688 302.05273438 622.96484375 C296.74096652 630.06834225 291.35480926 637.11585139 285.96459961 644.15991211 C281.58122654 649.89583266 277.26565883 655.67610964 273 661.5 C267.41554142 669.12444345 261.71184368 676.65074933 255.9675293 684.15527344 C250.93327882 690.74419204 245.99578643 697.39851008 241.10009766 704.09082031 C236.58924044 710.24281482 231.96927114 716.30528405 227.26098633 722.30761719 C224.53751516 725.81866667 222.22399399 729.29823687 220.07763672 733.20410156 C217.92556889 736.79055624 215.23060888 739.98701937 212.625 743.25 C207.67776594 749.52509398 202.83921791 755.86050521 198.125 762.3125 C192.44901552 770.07165741 186.65981086 777.73719771 180.82080078 785.37426758 C176.85408273 790.56347261 172.90935642 795.76745621 169 801 C164.41585262 807.1357291 159.77683829 813.22796626 155.125 819.3125 C149.43234325 826.7625489 143.82979216 834.27134428 138.28955078 841.83520508 C133.26575384 848.67776708 128.12022854 855.42337957 122.9609375 862.1640625 C118.57935674 867.89902727 114.26457042 873.67759563 110 879.5 C104.4133758 887.12740017 98.70723662 894.65644565 92.9609375 902.1640625 C88.57935674 907.89902727 84.26457042 913.67759563 80 919.5 C74.4133758 927.12740017 68.70723662 934.65644565 62.9609375 942.1640625 C58.57935674 947.89902727 54.26457042 953.67759563 50 959.5 C44.41710472 967.12230908 38.71579995 974.64713931 32.97192383 982.14868164 C28.47678181 988.03054746 24.06011873 993.96412573 19.6875 999.9375 C15.43421891 1005.73364977 11.15235694 1011.50341632 6.75 1017.1875 C6.29584717 1017.78232178 5.84169434 1018.37714355 5.3737793 1018.98999023 C4.29713522 1020.36557507 3.15467574 1021.68922921 2 1023 C1.34 1023 0.68 1023 0 1023 C-1.25830078 1021.58911133 -1.25830078 1021.58911133 -2.6953125 1019.58203125 C-3.23800781 1018.83308594 -3.78070312 1018.08414063 -4.33984375 1017.3125 C-4.92894531 1016.4875 -5.51804687 1015.6625 -6.125 1014.8125 C-7.39682998 1013.05742772 -8.6703291 1011.30356404 -9.9453125 1009.55078125 C-10.61079102 1008.63506348 -11.27626953 1007.7193457 -11.96191406 1006.77587891 C-15.24591114 1002.30306545 -18.62267236 997.90251451 -22 993.5 C-27.65441483 986.11426818 -33.21471573 978.66803651 -38.7109375 971.1640625 C-43.07277032 965.22328567 -47.52054548 959.3524674 -52 953.5 C-57.65353395 946.11358208 -63.21470194 938.66805534 -68.7109375 931.1640625 C-73.07277032 925.22328567 -77.52054548 919.3524674 -82 913.5 C-87.06652003 906.88052364 -92.07410611 900.2247938 -97 893.5 C-104.52896915 883.22776853 -112.25830348 873.11235957 -120 863 C-128.32925822 852.12015553 -136.61434746 841.21764548 -144.71142578 830.16357422 C-149.0729113 824.22282379 -153.52068454 818.35228572 -158 812.5 C-163.65353395 805.11358208 -169.21470194 797.66805534 -174.7109375 790.1640625 C-179.07277101 784.22328473 -183.52058269 778.35249694 -188 772.5 C-194.38326511 764.15916945 -200.65008769 755.7404317 -206.859375 747.26953125 C-210.26707722 742.62369722 -213.73733382 738.02713002 -217.23046875 733.4453125 C-219 731 -219 731 -220.40429688 728.62304688 C-221.91346658 726.14224526 -223.52775017 723.88312295 -225.30078125 721.5859375 C-225.94080078 720.75255859 -226.58082031 719.91917969 -227.24023438 719.06054688 C-227.92408203 718.17431641 -228.60792969 717.28808594 -229.3125 716.375 C-234.61226411 709.4666354 -239.85827286 702.52680383 -245 695.5 C-249.92530316 688.77478256 -254.93349033 682.11946282 -260 675.5 C-265.0665168 668.88052785 -270.07429391 662.22492873 -275 655.5 C-280.03182039 648.63120023 -285.14421545 641.82922928 -290.3125 635.0625 C-290.98812988 634.17763916 -291.66375977 633.29277832 -292.35986328 632.38110352 C-294.75508333 629.24546217 -297.15118929 626.11049833 -299.54736328 622.97558594 C-300.82668454 621.2988013 -302.10170931 619.61886574 -303.375 617.9375 C-304.04273438 617.05964844 -304.71046875 616.18179688 -305.3984375 615.27734375 C-306.8365246 613.23245404 -307.91386419 611.24210726 -309 609 C-308.38294189 608.19502075 -308.38294189 608.19502075 -307.75341797 607.3737793 C-300.42505622 597.80546223 -293.12132696 588.22378806 -286 578.5 C-280.41341913 570.87256781 -274.70723613 563.34355372 -268.9609375 555.8359375 C-264.57935674 550.10097273 -260.26457042 544.32240437 -256 538.5 C-250.4133758 530.87259983 -244.70723662 523.34355435 -238.9609375 515.8359375 C-234.57935674 510.10097273 -230.26457042 504.32240437 -226 498.5 C-220.41770707 490.8785133 -214.71645212 483.35494589 -208.97412109 475.85351562 C-204.4614174 469.94748867 -200.01978752 463.99420594 -195.625 458 C-190.65413204 451.22204454 -185.59840546 444.52697178 -180.45214844 437.88085938 C-171.59545857 426.40945071 -162.85389129 414.85706861 -154.29003906 403.16552734 C-149.26616188 396.32266014 -144.12040641 389.57685282 -138.9609375 382.8359375 C-134.57935674 377.10097273 -130.26457042 371.32240437 -126 365.5 C-120.42203846 357.88442694 -114.7256732 350.36633297 -108.98730469 342.87109375 C-103.74850999 336.01545018 -98.60675383 329.09285575 -93.515625 322.12695312 C-92.979375 321.39412109 -92.443125 320.66128906 -91.890625 319.90625 C-91.39498047 319.22433594 -90.89933594 318.54242187 -90.38867188 317.83984375 C-89.18189223 316.24098802 -87.87193095 314.72104274 -86.546875 313.21875 C-84.79061802 311.19632162 -84.79061802 311.19632162 -85.13480282 309.15239334 C-86.31418756 306.21838025 -88.05651664 304.57507557 -90.29627991 302.34295654 C-91.22321152 301.41190094 -92.15014313 300.48084534 -93.10516357 299.52157593 C-94.14036485 298.49699182 -95.17570902 297.47255207 -96.21118164 296.44824219 C-97.29570349 295.36456652 -98.37956523 294.28022989 -99.46281433 293.19528198 C-102.40639399 290.25084061 -105.35914025 287.31574871 -108.3135941 284.38222408 C-111.3992641 281.31529151 -114.47645617 278.23987694 -117.55455017 275.16534424 C-123.38507832 269.34414517 -129.22321253 263.53063648 -135.0641045 257.71983838 C-141.7131952 251.10426478 -148.35378243 244.48018371 -154.993662 237.85536718 C-168.65298773 224.22741003 -182.32297858 210.61019651 -196 197 C-191.58772241 191.71994927 -186.93917176 186.79924885 -182.06533813 181.94508362 C-181.28433664 181.1632277 -180.50333514 180.38137177 -179.69866693 179.57582325 C-177.09395921 176.96947487 -174.48570543 174.3667051 -171.87744141 171.76391602 C-170.0044438 169.89120061 -168.13164564 168.01828772 -166.25909424 166.14512634 C-162.23382702 162.11933616 -158.2067409 158.09537303 -154.17839432 154.07266426 C-148.35416806 148.25658388 -142.53272294 142.43772627 -136.71194105 136.61819898 C-127.26678567 127.17522928 -117.81940184 117.73449237 -108.37060547 108.29516602 C-99.19495105 99.12869826 -90.0203532 89.96117511 -80.84716797 80.79223633 C-80.28121515 80.22654623 -79.71526233 79.66085614 -79.13215943 79.07802392 C-76.29279247 76.23996205 -73.45344621 73.40187948 -70.61411023 70.56378663 C-47.07928042 47.03931433 -23.54082947 23.51846849 0 0 Z " fill="#3E394A" transform="translate(833,637)"/>
<path d="M0 0 C0.47671143 0.35916504 0.95342285 0.71833008 1.44458008 1.08837891 C5.7395262 4.31779491 10.05587239 7.5156784 14.390625 10.69140625 C23.05625479 17.04325393 31.62906305 23.50643582 40.16088867 30.03662109 C45.89689768 34.41903549 51.67651799 38.73464027 57.5 43 C65.12526593 48.585061 72.65283255 54.28881088 80.1574707 60.03466797 C85.95380929 64.46423345 91.79953926 68.81815557 97.6875 73.125 C104.63845489 78.21162593 111.46032026 83.43997185 118.23779297 88.75488281 C124.30043232 93.49358851 130.47328137 98.06674123 136.68359375 102.609375 C142.67751178 107.00231167 148.59959344 111.48240806 154.5 116 C161.11938274 121.0666281 167.77503207 126.07435459 174.5 131 C182.12740017 136.5866242 189.65644565 142.29276338 197.1640625 148.0390625 C202.89902727 152.42064326 208.67759563 156.73542958 214.5 161 C222.12740017 166.5866242 229.65644565 172.29276338 237.1640625 178.0390625 C243.6633434 183.0045898 250.22867507 187.87178773 256.82714844 192.7043457 C263.7513124 197.78788174 270.57777721 202.99460183 277.39916992 208.21484375 C284.85783276 213.91419616 292.40059836 219.49014197 300 225 C306.52351473 220.78063546 312.72850445 216.24808651 318.875 211.5 C325.69966055 206.26213332 332.55752351 201.08070043 339.5 196 C347.1000298 190.43204674 354.60990255 184.75419217 362.09375 179.03125 C368.03806189 174.48765962 374.00817591 169.98071903 380 165.5 C387.98324693 159.52864885 395.92533819 153.5050612 403.84765625 147.453125 C405.46432031 146.21835009 407.08210543 144.98504114 408.70117188 143.75341797 C410.24393715 142.57668261 411.78165877 141.39330747 413.31445312 140.20361328 C414.38856445 139.37772705 414.38856445 139.37772705 415.484375 138.53515625 C416.11569336 138.04539307 416.74701172 137.55562988 417.39746094 137.05102539 C419 136 419 136 421 136 C426.39115023 172.07860099 431.63440164 208.17619944 436.76707417 244.29246364 C437.44985183 249.09666949 438.13331087 253.90077803 438.81718254 258.70482826 C438.91676593 259.40438086 439.01634931 260.10393346 439.11895038 260.82468462 C439.32162527 262.24840973 439.52430189 263.67213459 439.7269802 265.09585921 C441.49499051 277.51578791 443.26147507 289.93593311 445.02709961 302.35620117 C446.71778368 314.24930051 448.40982789 326.14220538 450.10327148 338.03491211 C451.97402478 351.17283773 453.84393159 364.31088337 455.71252388 377.44911653 C455.91389307 378.86495078 456.11526285 380.28078495 456.31663322 381.69661903 C456.41556042 382.39218205 456.51448761 383.08774507 456.6164126 383.80438575 C457.29455711 388.57210346 457.9732467 393.33974337 458.65216255 398.1073513 C463.5336334 432.39162565 468.32921692 466.68635962 473 501 C465.45990796 501.286691 458.19364231 500.18732894 450.74629211 499.10853577 C449.29521362 498.90253305 447.84406547 498.69702044 446.39285439 498.49195379 C442.41790331 497.92882023 438.44397429 497.358747 434.47018087 496.78750956 C430.1796906 496.17199231 425.88828245 495.56293772 421.59698486 494.95307922 C413.19625636 493.75817774 404.79638388 492.55735892 396.39677946 491.35458405 C386.61644394 489.954348 376.83524418 488.56019573 367.05399611 487.16635101 C349.60461041 484.6795933 332.1559701 482.18764441 314.70776367 479.69262695 C297.77269227 477.27099308 280.83717724 474.85249541 263.90112305 472.43774414 C262.8576164 472.28895976 261.81410976 472.14017539 260.7389817 471.9868824 C256.54466913 471.38885891 252.35035593 470.79083987 248.15604128 470.19283092 C232.01980067 467.89209789 215.88388515 465.58908633 199.74803746 463.2855994 C194.87225285 462.58955388 189.99645581 461.89359559 185.1206286 461.19784856 C174.86882192 459.73495768 164.61713088 458.2712657 154.36580459 456.80501182 C150.12634413 456.19864842 145.88682385 455.59271241 141.64713097 454.98797607 C137.76791 454.43463456 133.88887768 453.87999005 130.00999405 453.3242889 C128.60510855 453.12324821 127.20015543 452.92267937 125.79512922 452.72262443 C123.88809813 452.45101467 121.98133663 452.17751405 120.07458973 451.90391636 C119.01457022 451.75240795 117.95455072 451.60089954 116.86240941 451.44479996 C114.2224702 451.03457043 111.61466584 450.54690238 109 450 C110.33441371 447.17250036 111.83769351 444.70389432 113.6953125 442.19140625 C114.23800781 441.45535156 114.78070312 440.71929688 115.33984375 439.9609375 C115.92894531 439.16945313 116.51804687 438.37796875 117.125 437.5625 C117.74246094 436.72847656 118.35992188 435.89445312 118.99609375 435.03515625 C124.27863897 427.92118754 129.65058169 420.87657862 135.03564453 413.84008789 C139.41865249 408.10395425 143.73437041 402.32385044 148 396.5 C152.92564843 389.77502794 157.93354988 383.11952221 163 376.5 C168.73423958 369.00673623 174.39680122 361.46727944 179.95922852 353.84545898 C182.77893041 349.98659707 185.63171409 346.16477916 188.57421875 342.3984375 C189.14043945 341.66729736 189.70666016 340.93615723 190.29003906 340.18286133 C191.36087251 338.80464726 192.44176681 337.43417122 193.53417969 336.07299805 C196.22212988 332.92317492 196.22212988 332.92317492 196.78955078 329.03662109 C195.91484999 326.78035826 194.85120715 325.12963538 193.40234375 323.19140625 C192.85642578 322.45535156 192.31050781 321.71929688 191.74804688 320.9609375 C191.15056641 320.16945313 190.55308594 319.37796875 189.9375 318.5625 C189.31552734 317.72847656 188.69355469 316.89445312 188.05273438 316.03515625 C182.74096652 308.93165775 177.35480926 301.88414861 171.96459961 294.84008789 C166.99496499 288.33700707 162.12515678 281.76676656 157.2890625 275.1640625 C152.26691059 268.32393705 147.12388338 261.58009006 141.96533203 254.8425293 C137.53576655 249.04619071 133.18184443 243.20046074 128.875 237.3125 C124.3488463 231.12743929 119.72949347 225.03095953 115 219 C109.6655376 212.19759567 104.49406186 205.29340214 99.390625 198.31640625 C94.99768833 192.32248822 90.51759194 186.40040656 86 180.5 C80.34634038 173.11367991 74.78529611 165.66805268 69.2890625 158.1640625 C64.92722968 152.22328567 60.47945452 146.3524674 56 140.5 C50.34646605 133.11358208 44.78529806 125.66805534 39.2890625 118.1640625 C34.92722968 112.22328567 30.47945452 106.3524674 26 100.5 C20.34646605 93.11358208 14.78529806 85.66805534 9.2890625 78.1640625 C4.92721856 72.22327052 0.47878736 66.35299128 -4 60.5 C-9.34405593 53.50271416 -14.67392066 46.49560535 -19.9375 39.4375 C-20.53498047 38.64601563 -21.13246094 37.85453125 -21.74804688 37.0390625 C-22.29396484 36.30300781 -22.83988281 35.56695313 -23.40234375 34.80859375 C-24.12151978 33.84651001 -24.12151978 33.84651001 -24.85522461 32.86499023 C-26.10585415 30.82754961 -26.67841594 29.36825535 -27 27 C-25.13629518 24.68898294 -23.32307046 22.74245126 -21.19140625 20.703125 C-20.59069809 20.10949158 -19.98998993 19.51585815 -19.37107849 18.90423584 C-17.4462785 17.00746548 -15.50484123 15.12878765 -13.5625 13.25 C-12.25602948 11.96860103 -10.95067569 10.68606239 -9.64648438 9.40234375 C-6.44380694 6.25484952 -3.2260982 3.12347689 0 0 Z " fill="#655D73" transform="translate(946,917)"/>
<path d="M0 0 C5.78313693 4.8032165 11.20607993 9.92373871 16.55517578 15.20507812 C17.52748263 16.16062673 18.50514744 17.11075057 19.48779297 18.05566406 C20.92035975 19.43376962 22.33550098 20.8299183 23.75 22.2265625 C25.01070312 23.45753662 25.01070312 23.45753662 26.296875 24.71337891 C28 27 28 27 27.9597168 29.02856445 C26.82216879 31.36529815 25.49537274 33.26547504 23.89453125 35.31640625 C23.24806641 36.15300781 22.60160156 36.98960937 21.93554688 37.8515625 C21.23494141 38.74617187 20.53433594 39.64078125 19.8125 40.5625 C18.33854225 42.4690466 16.86591038 44.3766189 15.39453125 46.28515625 C14.65283691 47.24566895 13.91114258 48.20618164 13.14697266 49.19580078 C10.03934218 53.25473229 7.01535993 57.37231313 4 61.5 C-1.58556977 69.12815554 -7.29278214 76.65647016 -13.0390625 84.1640625 C-17.42064326 89.89902727 -21.73542958 95.67759563 -26 101.5 C-31.585061 109.12526593 -37.28881088 116.65283255 -43.03466797 124.1574707 C-47.46423345 129.95380929 -51.81815557 135.79953926 -56.125 141.6875 C-61.21162593 148.63845489 -66.43997185 155.46032026 -71.75488281 162.23779297 C-76.49358851 168.30043232 -81.06674123 174.47328137 -85.609375 180.68359375 C-90.00231167 186.67751178 -94.48240806 192.59959344 -99 198.5 C-104.0666281 205.11938274 -109.07435459 211.77503207 -114 218.5 C-119.5866242 226.12740017 -125.29276338 233.65644565 -131.0390625 241.1640625 C-135.42064326 246.89902727 -139.73542958 252.67759563 -144 258.5 C-148.92564877 265.22497252 -153.93357332 271.88045965 -159 278.5 C-164.66179578 285.89908419 -170.24124879 293.3512507 -175.75048828 300.86450195 C-182.42730447 309.96427889 -189.21324287 318.98207853 -196 328 C-194.07639755 331.30704253 -192.03615401 334.38626804 -189.69921875 337.4140625 C-189.05919922 338.24744141 -188.41917969 339.08082031 -187.75976562 339.93945312 C-187.07591797 340.82568359 -186.39207031 341.71191406 -185.6875 342.625 C-180.38773589 349.5333646 -175.14172714 356.47319617 -170 363.5 C-165.07469684 370.22521744 -160.06650967 376.88053718 -155 383.5 C-149.9334832 390.11947215 -144.92570609 396.77507127 -140 403.5 C-134.96817817 410.36880174 -129.85569545 417.17070102 -124.6875 423.9375 C-124.01259521 424.82163574 -123.33769043 425.70577148 -122.64233398 426.61669922 C-120.24222743 429.75937853 -117.84158076 432.9016346 -115.43652344 436.04052734 C-114.14144241 437.73254578 -112.85119027 439.42811273 -111.5625 441.125 C-110.88316406 442.01445313 -110.20382812 442.90390625 -109.50390625 443.8203125 C-108 446 -108 446 -107 449 C-158.79558091 456.40729235 -210.59195253 463.80903302 -262.38951111 471.20248413 C-265.82541574 471.69292168 -269.26132008 472.18336121 -272.69722402 472.67380357 C-274.97768783 472.99931779 -277.25815208 473.32482893 -279.53861678 473.65033698 C-295.71595661 475.95949824 -311.89299165 478.27078407 -328.06982422 480.58349609 C-345.32013311 483.0496608 -362.57093119 485.51237001 -379.82241058 487.97033405 C-389.55625624 489.35729817 -399.28969181 490.74707153 -409.02260417 492.14057022 C-415.63808424 493.08745165 -422.25406753 494.03075938 -428.87046987 494.97117466 C-432.65560676 495.50927315 -436.44050426 496.04892603 -440.22480583 496.59287071 C-444.29732374 497.17820263 -448.37087649 497.75598571 -452.44458008 498.33300781 C-453.62675047 498.5041488 -454.80892086 498.67528978 -456.0269146 498.85161686 C-457.11593637 499.00461467 -458.20495815 499.15761248 -459.32698059 499.31524658 C-460.2606033 499.44848957 -461.19422602 499.58173256 -462.15614033 499.71901321 C-465.45075064 500.0445363 -468.69150935 500.04501562 -472 500 C-467.43573307 466.50129081 -462.76235465 433.0195232 -457.98882961 399.55002189 C-457.11615549 393.42898442 -456.24508863 387.3077182 -455.37384033 381.18647766 C-453.72360216 369.59369012 -452.072174 358.00107248 -450.42020154 346.40853196 C-449.12796856 337.34035131 -447.83604323 328.27212689 -446.54443359 319.20385742 C-446.36329278 317.9320855 -446.18215196 316.66031358 -445.99552202 315.35000312 C-445.08621073 308.96553392 -444.17705256 302.58104296 -443.26811981 296.19651985 C-442.90771003 293.66495892 -442.54729997 291.13339802 -442.18688965 288.60183716 C-442.00942436 287.35526183 -441.83195907 286.10868651 -441.64911604 284.82433617 C-440.58732086 277.36688398 -439.52433889 269.90960209 -438.46043539 262.45245039 C-435.26568779 240.05753226 -432.07883598 217.66184028 -428.97668409 195.25388134 C-428.57972102 192.38829153 -428.18173258 189.52284626 -427.78332901 186.6574564 C-427.65647209 185.74492444 -427.52961517 184.83239248 -427.3989141 183.89220804 C-427.14954907 182.09848623 -426.90014696 180.30476958 -426.65070558 178.51105839 C-425.94651296 173.4414891 -425.25001051 168.37094053 -424.55963326 163.29947233 C-424.14574996 160.27087892 -423.72521448 157.24323786 -423.30277157 154.2158277 C-423.11182078 152.83642851 -422.92383003 151.45661579 -422.73903751 150.07637811 C-422.49066706 148.22308143 -422.23117946 146.37128446 -421.9710083 144.51960754 C-421.83055714 143.49335675 -421.69010597 142.46710596 -421.54539871 141.40975666 C-421 139 -421 139 -419 137 C-409.09458249 144.2400906 -399.24287566 151.54224345 -389.5 159 C-382.88055046 164.06654406 -376.22497019 169.07435294 -369.5 174 C-362.77502542 178.92565028 -356.11961007 183.93366232 -349.5 189 C-340.55124937 195.84586816 -331.51532251 202.56264292 -322.42626953 209.22070312 C-318.04906007 212.43071546 -313.68148405 215.65380684 -309.3125 218.875 C-307.70446618 220.05994889 -306.09639706 221.24484989 -304.48828125 222.4296875 C-303.32552083 223.28645833 -302.16276042 224.14322917 -301 225 C-298.17250036 223.66558629 -295.70389432 222.16230649 -293.19140625 220.3046875 C-292.45535156 219.76199219 -291.71929687 219.21929688 -290.9609375 218.66015625 C-290.16945313 218.07105469 -289.37796875 217.48195313 -288.5625 216.875 C-287.72847656 216.25753906 -286.89445313 215.64007812 -286.03515625 215.00390625 C-278.92118754 209.72136103 -271.87657862 204.34941831 -264.84008789 198.96435547 C-258.33675974 193.9951304 -251.76672745 189.12512813 -245.1640625 184.2890625 C-238.32393705 179.26691059 -231.58009006 174.12388338 -224.8425293 168.96533203 C-219.04619071 164.53576655 -213.20046074 160.18184443 -207.3125 155.875 C-201.12743929 151.3488463 -195.03095953 146.72949347 -189 142 C-182.19759567 136.6655376 -175.29340214 131.49406186 -168.31640625 126.390625 C-162.32248822 121.99768833 -156.40040656 117.51759194 -150.5 113 C-143.11367991 107.34634038 -135.66805268 101.78529611 -128.1640625 96.2890625 C-122.22328567 91.92722968 -116.3524674 87.47945452 -110.5 83 C-103.11358208 77.34646605 -95.66805534 71.78529806 -88.1640625 66.2890625 C-82.22328567 61.92722968 -76.3524674 57.47945452 -70.5 53 C-63.11358208 47.34646605 -55.66805534 41.78529806 -48.1640625 36.2890625 C-41.33657353 31.27618854 -34.60495441 26.14297525 -27.87988281 20.99389648 C-20.90509644 15.66379965 -13.85980954 10.43526515 -6.77539062 5.25195312 C-6.02966797 4.70603516 -5.28394531 4.16011719 -4.515625 3.59765625 C-3.85852539 3.11820557 -3.20142578 2.63875488 -2.52441406 2.14477539 C-1.03619618 1.08313378 -1.03619618 1.08313378 0 0 Z " fill="#5C6E6C" transform="translate(721,918)"/>
<path d="M0 0 C-0.56738339 8.52111211 -1.43834496 16.93503117 -2.66090393 25.38581848 C-2.82762303 26.56206227 -2.99434213 27.73830605 -3.16611332 28.95019358 C-3.62426653 32.17661107 -4.08611039 35.40247387 -4.54959881 38.62812841 C-5.05108298 42.12482053 -5.54768336 45.62220676 -6.04490662 49.11950684 C-6.90702119 55.17860734 -7.77217781 61.23726708 -8.63943672 67.29563332 C-9.90203705 76.11575791 -11.15994717 84.93654662 -12.41679107 93.7574931 C-14.46802747 108.15284314 -16.5229974 122.54765761 -18.58032227 136.94213867 C-20.55786265 150.77844878 -22.53368556 164.61500225 -24.50708008 178.4519043 C-24.62774794 179.29799001 -24.74841581 180.14407572 -24.87274028 181.01580039 C-25.47929876 185.26887616 -26.08582367 189.52195672 -26.69233429 193.77503932 C-31.73343891 229.1247302 -36.78096093 264.47350266 -41.83153152 299.82184219 C-43.01981268 308.13848199 -44.20790743 316.45514841 -45.39596558 324.77182007 C-45.58790019 326.11540125 -45.77983483 327.45898243 -45.97176951 328.80256361 C-46.34244439 331.39736339 -46.71311907 333.99216321 -47.08379352 336.58696306 C-47.92224795 342.45626876 -48.76073518 348.32556977 -49.59922791 354.19487 C-49.74263811 355.19871605 -49.88604832 356.2025621 -50.0338043 357.23682773 C-50.35586884 359.49121859 -50.67793398 361.74560936 -51 364 C-53.81047932 362.62514593 -56.29057247 361.16639749 -58.80859375 359.3046875 C-59.54464844 358.76199219 -60.28070312 358.21929688 -61.0390625 357.66015625 C-61.83054687 357.07105469 -62.62203125 356.48195313 -63.4375 355.875 C-64.27152344 355.25753906 -65.10554688 354.64007812 -65.96484375 354.00390625 C-73.07881246 348.72136103 -80.12342138 343.34941831 -87.15991211 337.96435547 C-92.89604816 333.58134567 -98.67622603 329.26573641 -104.5 325 C-112.09599959 319.43446496 -119.60210519 313.75944606 -127.08276367 308.04003906 C-133.95748262 302.78607526 -140.85883465 297.56912967 -147.79663086 292.39868164 C-151.78564264 289.42437298 -155.75026975 286.42720279 -159.66796875 283.359375 C-160.40039795 282.79186523 -161.13282715 282.22435547 -161.88745117 281.63964844 C-163.25899275 280.57513055 -164.62296776 279.50076451 -165.9777832 278.41503906 C-169.10577242 275.75991381 -169.10577242 275.75991381 -172.96118164 275.21264648 C-175.2202922 276.08507273 -176.86893418 277.14772357 -178.80859375 278.59765625 C-179.54464844 279.14357422 -180.28070312 279.68949219 -181.0390625 280.25195312 C-181.83054687 280.84943359 -182.62203125 281.44691406 -183.4375 282.0625 C-184.27152344 282.68447266 -185.10554688 283.30644531 -185.96484375 283.94726562 C-193.06834225 289.25903348 -200.11585139 294.64519074 -207.15991211 300.03540039 C-213.66299293 305.00503501 -220.23323344 309.87484322 -226.8359375 314.7109375 C-232.77671433 319.07277032 -238.6475326 323.52054548 -244.5 328 C-251.88641792 333.65353395 -259.33194466 339.21470194 -266.8359375 344.7109375 C-272.77671433 349.07277032 -278.6475326 353.52054548 -284.5 358 C-291.11947636 363.06652003 -297.7752062 368.07410611 -304.5 373 C-314.77223147 380.52896915 -324.88764043 388.25830348 -335 396 C-345.87984447 404.32925822 -356.78235452 412.61434746 -367.83642578 420.71142578 C-373.77717621 425.0729113 -379.64771428 429.52068454 -385.5 434 C-392.88641792 439.65353395 -400.33194466 445.21470194 -407.8359375 450.7109375 C-414.67524077 455.73248575 -421.41789671 460.87536687 -428.15527344 466.0324707 C-434.74096167 471.06425301 -441.38669164 476.00709042 -448.08422852 480.88891602 C-452.05409455 483.79153707 -455.96983887 486.74207807 -459.82421875 489.796875 C-460.98775879 490.71303589 -460.98775879 490.71303589 -462.17480469 491.64770508 C-463.64895793 492.81376221 -465.1149507 493.99023466 -466.57128906 495.1784668 C-467.22709961 495.69578369 -467.88291016 496.21310059 -468.55859375 496.74609375 C-469.41408813 497.43723267 -469.41408813 497.43723267 -470.28686523 498.14233398 C-472 499 -472 499 -473.84887695 498.98876953 C-477.12719199 497.48188315 -479.3802897 494.98562821 -481.859375 492.43359375 C-482.40861633 491.88010757 -482.95785767 491.3266214 -483.52374268 490.75636292 C-485.27300464 488.99033441 -487.01153644 487.21415308 -488.75 485.4375 C-489.935505 484.23694559 -491.12169524 483.0370674 -492.30859375 481.83789062 C-495.21373293 478.89970905 -498.10929337 475.95237926 -501 473 C-498.85861165 469.16197763 -496.78718377 465.48737041 -494.0390625 462.046875 C-493.21946045 461.0098645 -493.21946045 461.0098645 -492.38330078 459.9519043 C-491.51294189 458.86196167 -491.51294189 458.86196167 -490.625 457.75 C-485.67776872 451.47490955 -480.83913201 445.13955463 -476.125 438.6875 C-471.15970782 431.89819437 -466.11334308 425.17851445 -461 418.5 C-455.9333719 411.88061726 -450.92564541 405.22496793 -446 398.5 C-440.4133758 390.87259983 -434.70723662 383.34355435 -428.9609375 375.8359375 C-424.57935309 370.10096794 -420.26478397 364.32225144 -416 358.5 C-407.80947129 347.32516251 -399.3808775 336.33483042 -390.95898438 325.33398438 C-383.31221662 315.34113256 -375.72423198 305.31467904 -368.28857422 295.16357422 C-363.26523759 288.32132079 -358.11991086 281.57620537 -352.9609375 274.8359375 C-348.57935674 269.10097273 -344.26457042 263.32240437 -340 257.5 C-334.4133758 249.87259983 -328.70723662 242.34355435 -322.9609375 234.8359375 C-317.9954102 228.3366566 -313.12821227 221.77132493 -308.2956543 215.17285156 C-303.21211826 208.2486876 -298.00539817 201.42222279 -292.78515625 194.60083008 C-287.08580384 187.14216724 -281.50985803 179.59940164 -276 172 C-280.21936454 165.47648527 -284.75191349 159.27149555 -289.5 153.125 C-294.73786415 146.30034275 -299.91942858 139.44256862 -305 132.5 C-309.92533563 125.77480601 -314.93348981 119.11946351 -320 112.5 C-325.06651628 105.88052853 -330.07432621 99.22495206 -335 92.5 C-341.35947438 83.81807052 -347.86608758 75.25337846 -354.40625 66.70703125 C-355.30730469 65.52101318 -355.30730469 65.52101318 -356.2265625 64.31103516 C-357.41224954 62.76592041 -358.61562957 61.23422885 -359.8359375 59.71630859 C-360.67511719 58.65597412 -360.67511719 58.65597412 -361.53125 57.57421875 C-362.03205078 56.95506592 -362.53285156 56.33591309 -363.04882812 55.69799805 C-363.36271484 55.13765869 -363.67660156 54.57731934 -364 54 C-363.67 53.01 -363.34 52.02 -363 51 C-333.58458223 46.81307988 -304.16910144 42.62660274 -274.75354374 38.44066581 C-271.20394084 37.93554452 -267.65433843 37.43041981 -264.10473633 36.92529297 C-263.39868617 36.82481842 -262.69263602 36.72434387 -261.9651904 36.62082464 C-252.1980216 35.23089939 -242.43087857 33.84079322 -232.66375785 32.45053017 C-202.88214351 28.21139168 -173.10029822 23.97388598 -143.31776989 19.74117297 C-139.95559814 19.26333881 -136.5934293 18.78548417 -133.23126221 18.30761719 C-132.56550749 18.21299371 -131.89975277 18.11837024 -131.21382366 18.02087939 C-120.22205212 16.45856536 -109.23057133 14.89421419 -98.23918209 13.32921308 C-86.83127093 11.70495113 -75.42305928 10.082816 -64.01457089 8.46261263 C-57.72598864 7.56946136 -51.4375426 6.67537638 -45.14943123 5.77891541 C-39.34861149 4.95195129 -33.54743335 4.12755149 -27.74595761 3.30520248 C-25.62802513 3.00452076 -23.51022826 2.70288206 -21.39257693 2.40022659 C-18.51646397 1.98931359 -15.63988924 1.58180258 -12.76316833 1.1751709 C-11.92492163 1.05457668 -11.08667493 0.93398246 -10.22302681 0.80973387 C-6.76611458 0.32431197 -3.4987813 0 0 0 Z " fill="#A195AD" transform="translate(1419,249)"/>
<path d="M0 0 C9.12694115 0.55117959 18.12468186 1.44499234 27.17214966 2.75701904 C29.04471855 3.02252339 29.04471855 3.02252339 30.95511711 3.29339147 C34.37770204 3.7787959 37.79940313 4.27018703 41.22097683 4.76266193 C44.92919382 5.29528285 48.63822307 5.82219185 52.34715271 6.349823 C58.76702759 7.26388977 65.18638935 8.18148934 71.60541153 9.10152435 C80.92517759 10.43730209 90.24573684 11.7674768 99.56649254 13.09632936 C114.74408567 15.26032664 129.92106864 17.42857223 145.09765625 19.59960938 C159.74289083 21.69462427 174.38835582 23.78801472 189.03417969 25.87890625 C189.93312868 26.00724432 190.83207767 26.13558238 191.75826754 26.26780948 C200.73374526 27.54915743 209.70925959 28.83024882 218.68477813 30.11131082 C222.20301395 30.61346606 225.72124786 31.1156346 229.23948051 31.61781201 C230.9789691 31.8660988 232.71845829 32.11438143 234.45794807 32.36265984 C246.2227448 34.04189213 257.98729493 35.72284147 269.75165896 37.40510228 C276.00714705 38.29954032 282.2627045 39.19349306 288.51827082 40.08738381 C290.74917966 40.40620148 292.98007381 40.72512185 295.21096635 41.04405355 C308.54815411 42.9504591 321.88533551 44.85623508 335.23138428 46.6998291 C336.55877013 46.8832185 336.55877013 46.8832185 337.91297185 47.07031274 C341.75795288 47.60056625 345.60334584 48.12748655 349.44961739 48.64829636 C350.69285711 48.81811649 351.93609684 48.98793663 353.2170105 49.16290283 C354.25480589 49.30299397 355.29260128 49.4430851 356.36184502 49.58742142 C358.62605058 49.9415184 360.79122855 50.39652863 363 51 C361.40509259 56.21412039 358.10725759 59.94451204 354.75 64.125 C349.7566191 70.43924812 344.87200628 76.81092822 340.125 83.3125 C335.15995481 90.10198226 330.1133386 96.82149141 325 103.5 C319.93337075 110.11938426 314.92570424 116.7750738 310 123.5 C304.96818105 130.3687978 299.85587363 137.17084041 294.6875 143.9375 C294.01114502 144.82308594 293.33479004 145.70867187 292.63793945 146.62109375 C291.34470825 148.31374969 290.05133896 150.00630015 288.7578125 151.69873047 C286.39372185 154.79371914 284.03583613 157.89302931 281.6875 161 C281.03136719 161.86625 280.37523437 162.7325 279.69921875 163.625 C277.99018547 166.01371779 276.47376077 168.46059683 275 171 C275.35078613 171.44577393 275.70157227 171.89154785 276.06298828 172.35083008 C283.39637104 181.68563006 290.59763049 191.09761387 297.60595703 200.67895508 C302.00005977 206.67440188 306.48123907 212.59806662 311 218.5 C316.65365962 225.88632009 322.21470389 233.33194732 327.7109375 240.8359375 C332.07277032 246.77671433 336.52054548 252.6475326 341 258.5 C346.65353395 265.88641792 352.21470194 273.33194466 357.7109375 280.8359375 C362.07277032 286.77671433 366.52054548 292.6475326 371 298.5 C376.65353395 305.88641792 382.21470194 313.33194466 387.7109375 320.8359375 C392.73308941 327.67606295 397.87611662 334.41990994 403.03466797 341.1574707 C407.46423345 346.95380929 411.81815557 352.79953926 416.125 358.6875 C420.6511537 364.87256071 425.27050653 370.96904047 430 377 C435.3344624 383.80240433 440.50593814 390.70659786 445.609375 397.68359375 C450.00231167 403.67751178 454.48240806 409.59959344 459 415.5 C464.06663041 422.11938577 469.07423685 428.77511559 474 435.5 C479.13805407 442.51264911 484.35461805 449.46121714 489.625 456.375 C490.63820313 457.7043457 490.63820313 457.7043457 491.671875 459.06054688 C494.74097205 463.07708785 497.84147714 467.05184642 501 471 C491.76 480.24 482.52 489.48 473 499 C469.01488522 497.40595409 466.82618521 496.32094744 463.5859375 493.796875 C462.75231689 493.15347168 461.91869629 492.51006836 461.05981445 491.84716797 C460.17382568 491.15510254 459.28783691 490.46303711 458.375 489.75 C456.48149081 488.28773806 454.58693835 486.82682618 452.69140625 485.3671875 C451.73766113 484.63209961 450.78391602 483.89701172 449.80126953 483.13964844 C445.68103388 479.99255542 441.50027403 476.93129743 437.3125 473.875 C430.36095457 468.78920614 423.53965178 463.56000621 416.76220703 458.24511719 C410.69956768 453.50641149 404.52671863 448.93325877 398.31640625 444.390625 C392.32248822 439.99768833 386.40040656 435.51759194 380.5 431 C373.88061726 425.9333719 367.22496793 420.92564541 360.5 416 C352.87259983 410.4133758 345.34355435 404.70723662 337.8359375 398.9609375 C332.10097273 394.57935674 326.32240437 390.26457042 320.5 386 C312.87259983 380.4133758 305.34355435 374.70723662 297.8359375 368.9609375 C292.10097273 364.57935674 286.32240437 360.26457042 280.5 356 C272.87555655 350.41554142 265.34925067 344.71184368 257.84472656 338.9675293 C252.02422737 334.52038819 246.1582237 330.14229229 240.25 325.8125 C232.17677229 319.89346276 224.20976743 313.84745659 216.2734375 307.74658203 C205.03109772 299.10958689 193.75950112 290.51157489 182.375 282.0625 C181.17544678 281.16640015 181.17544678 281.16640015 179.95166016 280.25219727 C179.21222168 279.70619873 178.4727832 279.1602002 177.7109375 278.59765625 C177.06431152 278.11820557 176.41768555 277.63875488 175.75146484 277.14477539 C173.88966819 275.82192636 173.88966819 275.82192636 171 275 C169.14828349 275.90887021 169.14828349 275.90887021 167.2890625 277.40234375 C166.54978516 277.95470703 165.81050781 278.50707031 165.04882812 279.07617188 C164.24896484 279.69041016 163.44910156 280.30464844 162.625 280.9375 C161.78646484 281.56849609 160.94792969 282.19949219 160.08398438 282.84960938 C157.38067056 284.88860033 154.68942326 286.94273083 152 289 C150.2475833 290.33488156 148.49498096 291.66951944 146.7421875 293.00390625 C144.10651142 295.01200529 141.47193264 297.02147434 138.84033203 299.03491211 C132.3374754 304.00511497 125.76689757 308.87474726 119.1640625 313.7109375 C112.32475923 318.73248575 105.58210329 323.87536687 98.84472656 329.0324707 C92.25872138 334.06449518 85.60754433 339.00008771 78.91796875 343.89331055 C72.64478597 348.49271582 66.46601021 353.20794452 60.34082031 358.00268555 C59.68178711 358.51355713 59.02275391 359.02442871 58.34375 359.55078125 C57.76818359 360.00106689 57.19261719 360.45135254 56.59960938 360.9152832 C55 362 55 362 52 363 C50.52298359 356.68095162 49.38648088 350.40360507 48.48699951 343.97903442 C48.3481607 343.00805687 48.20932189 342.03707931 48.06627584 341.03667819 C47.60431332 337.79982126 47.14737493 334.56227576 46.69042969 331.32470703 C46.35847636 328.9913867 46.02621302 326.65811046 45.69366455 324.32487488 C44.78886856 317.97023791 43.88845224 311.61498714 42.98880672 305.25961924 C42.12954751 299.19191419 41.26634758 293.12476918 40.40354982 287.05756651 C38.67867692 274.92744502 36.95700759 262.79687106 35.23730469 250.66601562 C33.60233119 239.13288973 31.96584153 227.59998082 30.32714844 216.06738281 C30.17833073 215.02003827 30.17833073 215.02003827 30.0265066 213.95153525 C29.62662496 211.13729941 29.22673174 208.32306521 28.82682404 205.50883307 C24.43299331 174.58848879 20.04718523 143.66701082 15.66486025 112.74503398 C14.38191085 103.69299202 13.09805677 94.64107871 11.8137207 85.5892334 C10.28542184 74.81794251 8.7580504 64.04652072 7.23205209 53.27490366 C6.45847715 47.81453615 5.68449075 42.35422784 4.90938568 36.8940773 C4.20197719 31.91059434 3.49585687 26.92693068 2.79080486 21.9431138 C2.53511374 20.13732085 2.27894719 18.33159514 2.02227497 16.52594137 C1.67611066 14.09021655 1.33163244 11.6542593 0.98760986 9.2182312 C0.88610839 8.50693341 0.78460691 7.79563563 0.68002963 7.06278336 C0 2.22833387 0 2.22833387 0 0 Z " fill="#8CD492" transform="translate(249,250)"/>
</svg>
